<svg width="297" height="83" viewBox="0 0 297 83" fill="none" xmlns="http://www.w3.org/2000/svg">
<path d="M9 65.3519V17.6481C9 15.9913 10.3431 14.6481 12 14.6481H59.7037C61.3606 14.6481 62.7037 15.9913 62.7037 17.6481V65.3519C62.7037 67.0087 61.3606 68.3519 59.7037 68.3519H12C10.3431 68.3519 9 67.0087 9 65.3519Z" fill="#212125"/>
<rect x="17" y="21" width="37.2263" height="5.25627" rx="2.62813" fill="white"/>
<rect x="17" y="30.2563" width="27.5373" height="5.25627" rx="2.62813" fill="white"/>
<rect x="17" y="39.5125" width="37.2263" height="5.25627" rx="2.62813" fill="white"/>
<rect x="17" y="48.7688" width="27.5373" height="5.25627" rx="2.62813" fill="white"/>
<rect x="17" y="58.0251" width="37.2263" height="5.25627" rx="2.62813" fill="white"/>
<path d="M79.9367 63V34.168H86.4557V40.846L85.7137 39.733C86.2437 37.6483 87.3037 36.0937 88.8937 35.069C90.4837 34.0443 92.3564 33.532 94.5117 33.532C96.879 33.532 98.9637 34.1503 100.766 35.387C102.568 36.6237 103.734 38.249 104.264 40.263L102.303 40.422C103.186 38.1253 104.511 36.4117 106.278 35.281C108.044 34.115 110.076 33.532 112.373 33.532C114.422 33.532 116.242 33.9913 117.832 34.91C119.457 35.8287 120.729 37.1183 121.648 38.779C122.566 40.4043 123.026 42.2947 123.026 44.45V63H116.083V46.093C116.083 44.821 115.853 43.7257 115.394 42.807C114.934 41.8883 114.298 41.1817 113.486 40.687C112.673 40.157 111.684 39.892 110.518 39.892C109.422 39.892 108.451 40.157 107.603 40.687C106.755 41.1817 106.101 41.8883 105.642 42.807C105.182 43.7257 104.953 44.821 104.953 46.093V63H98.0097V46.093C98.0097 44.821 97.78 43.7257 97.3207 42.807C96.8614 41.8883 96.2077 41.1817 95.3597 40.687C94.547 40.157 93.5754 39.892 92.4447 39.892C91.3494 39.892 90.3777 40.157 89.5297 40.687C88.6817 41.1817 88.028 41.8883 87.5687 42.807C87.1094 43.7257 86.8797 44.821 86.8797 46.093V63H79.9367ZM142.786 63.636C139.924 63.636 137.344 62.9823 135.048 61.675C132.786 60.3323 131.002 58.5303 129.695 56.269C128.387 53.9723 127.734 51.393 127.734 48.531C127.734 45.669 128.387 43.1073 129.695 40.846C131.002 38.5847 132.786 36.8003 135.048 35.493C137.344 34.1857 139.924 33.532 142.786 33.532C144.835 33.532 146.743 33.903 148.51 34.645C150.276 35.3517 151.796 36.341 153.068 37.613C154.375 38.8497 155.311 40.3337 155.877 42.065L149.782 44.715C149.252 43.2663 148.351 42.1003 147.079 41.217C145.842 40.3337 144.411 39.892 142.786 39.892C141.266 39.892 139.906 40.263 138.705 41.005C137.539 41.747 136.62 42.7717 135.949 44.079C135.277 45.3863 134.942 46.888 134.942 48.584C134.942 50.28 135.277 51.7817 135.949 53.089C136.62 54.3963 137.539 55.421 138.705 56.163C139.906 56.905 141.266 57.276 142.786 57.276C144.446 57.276 145.895 56.8343 147.132 55.951C148.368 55.0677 149.252 53.884 149.782 52.4L155.877 55.156C155.311 56.7813 154.393 58.2477 153.121 59.555C151.849 60.827 150.329 61.834 148.563 62.576C146.796 63.2827 144.87 63.636 142.786 63.636ZM161.145 63V22.879H168.088V63H161.145ZM188.596 63.636C185.77 63.636 183.19 62.9823 180.858 61.675C178.562 60.3677 176.724 58.5833 175.346 56.322C174.004 54.0607 173.332 51.4813 173.332 48.584C173.332 45.6867 174.004 43.1073 175.346 40.846C176.724 38.5847 178.562 36.8003 180.858 35.493C183.155 34.1857 185.734 33.532 188.596 33.532C191.423 33.532 193.985 34.1857 196.281 35.493C198.578 36.8003 200.398 38.5847 201.74 40.846C203.118 43.072 203.807 45.6513 203.807 48.584C203.807 51.4813 203.118 54.0607 201.74 56.322C200.362 58.5833 198.525 60.3677 196.228 61.675C193.932 62.9823 191.388 63.636 188.596 63.636ZM188.596 57.276C190.151 57.276 191.511 56.905 192.677 56.163C193.879 55.421 194.815 54.3963 195.486 53.089C196.193 51.7463 196.546 50.2447 196.546 48.584C196.546 46.888 196.193 45.404 195.486 44.132C194.815 42.8247 193.879 41.8 192.677 41.058C191.511 40.2807 190.151 39.892 188.596 39.892C187.006 39.892 185.611 40.2807 184.409 41.058C183.208 41.8 182.254 42.8247 181.547 44.132C180.876 45.404 180.54 46.888 180.54 48.584C180.54 50.2447 180.876 51.7463 181.547 53.089C182.254 54.3963 183.208 55.421 184.409 56.163C185.611 56.905 187.006 57.276 188.596 57.276ZM212.358 63V55.58H219.354V63H212.358ZM243.095 74.66C240.939 74.66 238.943 74.3067 237.106 73.6C235.268 72.8933 233.678 71.904 232.336 70.632C231.028 69.3953 230.074 67.929 229.474 66.233L235.94 63.795C236.364 65.1377 237.194 66.2153 238.431 67.028C239.703 67.876 241.257 68.3 243.095 68.3C244.508 68.3 245.745 68.035 246.805 67.505C247.9 66.975 248.748 66.1977 249.349 65.173C249.949 64.1837 250.25 62.9823 250.25 61.569V54.997L251.575 56.587C250.585 58.3183 249.26 59.6257 247.6 60.509C245.939 61.3923 244.049 61.834 241.929 61.834C239.243 61.834 236.841 61.2157 234.721 59.979C232.601 58.7423 230.94 57.0463 229.739 54.891C228.537 52.7357 227.937 50.3153 227.937 47.63C227.937 44.9093 228.537 42.489 229.739 40.369C230.94 38.249 232.583 36.5883 234.668 35.387C236.752 34.1503 239.12 33.532 241.77 33.532C243.925 33.532 245.815 33.9913 247.441 34.91C249.101 35.7933 250.479 37.083 251.575 38.779L250.621 40.528V34.168H257.193V61.569C257.193 64.0777 256.574 66.3213 255.338 68.3C254.136 70.2787 252.476 71.8333 250.356 72.964C248.271 74.0947 245.851 74.66 243.095 74.66ZM242.777 55.421C244.261 55.421 245.55 55.103 246.646 54.467C247.776 53.7957 248.66 52.877 249.296 51.711C249.932 50.545 250.25 49.2023 250.25 47.683C250.25 46.199 249.914 44.874 249.243 43.708C248.607 42.5067 247.723 41.5703 246.593 40.899C245.497 40.2277 244.225 39.892 242.777 39.892C241.328 39.892 240.021 40.2277 238.855 40.899C237.689 41.5703 236.77 42.5067 236.099 43.708C235.463 44.874 235.145 46.199 235.145 47.683C235.145 49.167 235.463 50.492 236.099 51.658C236.77 52.824 237.671 53.7427 238.802 54.414C239.968 55.0853 241.293 55.421 242.777 55.421ZM274.648 63.636C271.574 63.636 268.889 62.9117 266.592 61.463C264.331 59.979 262.776 57.9827 261.928 55.474L267.122 52.983C267.864 54.6083 268.889 55.8803 270.196 56.799C271.539 57.7177 273.023 58.177 274.648 58.177C275.92 58.177 276.927 57.8943 277.669 57.329C278.411 56.7637 278.782 56.0217 278.782 55.103C278.782 54.5377 278.623 54.0783 278.305 53.725C278.022 53.3363 277.616 53.0183 277.086 52.771C276.591 52.4883 276.044 52.2587 275.443 52.082L270.726 50.757C268.288 50.0503 266.433 48.9727 265.161 47.524C263.924 46.0753 263.306 44.3617 263.306 42.383C263.306 40.6163 263.748 39.0793 264.631 37.772C265.55 36.4293 266.804 35.387 268.394 34.645C270.019 33.903 271.874 33.532 273.959 33.532C276.68 33.532 279.082 34.1857 281.167 35.493C283.252 36.8003 284.736 38.6377 285.619 41.005L280.319 43.496C279.824 42.1887 278.994 41.1463 277.828 40.369C276.662 39.5917 275.355 39.203 273.906 39.203C272.74 39.203 271.821 39.468 271.15 39.998C270.479 40.528 270.143 41.217 270.143 42.065C270.143 42.595 270.284 43.0543 270.567 43.443C270.85 43.8317 271.238 44.1497 271.733 44.397C272.263 44.6443 272.864 44.874 273.535 45.086L278.146 46.464C280.513 47.1707 282.333 48.2307 283.605 49.644C284.912 51.0573 285.566 52.7887 285.566 54.838C285.566 56.5693 285.107 58.1063 284.188 59.449C283.269 60.7563 281.997 61.781 280.372 62.523C278.747 63.265 276.839 63.636 274.648 63.636Z" fill="#F5F5F5"/>
</svg>
