
<svg width="297" height="87" viewBox="0 0 297 87" fill="none" xmlns="http://www.w3.org/2000/svg">
    <path d="M4 69V17C4 15.3431 5.34315 14 7 14H59C60.6569 14 62 15.3431 62 17V69C62 70.6569 60.6569 72 59 72H7C5.34315 72 4 70.6569 4 69Z" fill="#212125"/>
    <path d="M10 24.6181C10 23.1722 11.0848 22 12.423 22H45.377C46.7152 22 47.8 23.1722 47.8 24.6181C47.8 26.064 46.7152 27.2362 45.377 27.2362H12.423C11.0848 27.2362 10 26.064 10 24.6181Z" fill="white"/>
    <path d="M10 33.8391C10 32.3931 11.0848 31.2209 12.423 31.2209H32.965C34.3032 31.2209 35.388 32.3931 35.388 33.8391C35.388 35.285 34.3032 36.4572 32.965 36.4572H12.423C11.0848 36.4572 10 35.285 10 33.8391Z" fill="white"/>
    <path d="M10 43.06C10 41.6141 11.0848 40.4419 12.423 40.4419H45.377C46.7152 40.4419 47.8 41.6141 47.8 43.06C47.8 44.5059 46.7152 45.6781 45.377 45.6781H12.423C11.0848 45.6781 10 44.5059 10 43.06Z" fill="white"/>
    <path d="M10 52.2809C10 50.835 11.0848 49.6628 12.423 49.6628H32.965C34.3032 49.6628 35.388 50.835 35.388 52.2809C35.388 53.7269 34.3032 54.8991 32.965 54.8991H12.423C11.0848 54.8991 10 53.7269 10 52.2809Z" fill="white"/>
    <path d="M10 61.5019C10 60.056 11.0848 58.8838 12.423 58.8838H45.377C46.7152 58.8838 47.8 60.056 47.8 61.5019C47.8 62.9478 46.7152 64.12 45.377 64.12H12.423C11.0848 64.12 10 62.9478 10 61.5019Z" fill="white"/>
    <path d="M86.233 60V31.168H92.752V37.846L92.01 36.733C92.54 34.6483 93.6 33.0937 95.19 32.069C96.78 31.0443 98.6527 30.532 100.808 30.532C103.175 30.532 105.26 31.1503 107.062 32.387C108.864 33.6237 110.03 35.249 110.56 37.263L108.599 37.422C109.482 35.1253 110.807 33.4117 112.574 32.281C114.341 31.115 116.372 30.532 118.669 30.532C120.718 30.532 122.538 30.9913 124.128 31.91C125.753 32.8287 127.025 34.1183 127.944 35.779C128.863 37.4043 129.322 39.2947 129.322 41.45V60H122.379V43.093C122.379 41.821 122.149 40.7257 121.69 39.807C121.231 38.8883 120.595 38.1817 119.782 37.687C118.969 37.157 117.98 36.892 116.814 36.892C115.719 36.892 114.747 37.157 113.899 37.687C113.051 38.1817 112.397 38.8883 111.938 39.807C111.479 40.7257 111.249 41.821 111.249 43.093V60H104.306V43.093C104.306 41.821 104.076 40.7257 103.617 39.807C103.158 38.8883 102.504 38.1817 101.656 37.687C100.843 37.157 99.8717 36.892 98.741 36.892C97.6457 36.892 96.674 37.157 95.826 37.687C94.978 38.1817 94.3243 38.8883 93.865 39.807C93.4057 40.7257 93.176 41.821 93.176 43.093V60H86.233ZM149.082 60.636C146.22 60.636 143.641 59.9823 141.344 58.675C139.083 57.3323 137.298 55.5303 135.991 53.269C134.684 50.9723 134.03 48.393 134.03 45.531C134.03 42.669 134.684 40.1073 135.991 37.846C137.298 35.5847 139.083 33.8003 141.344 32.493C143.641 31.1857 146.22 30.532 149.082 30.532C151.131 30.532 153.039 30.903 154.806 31.645C156.573 32.3517 158.092 33.341 159.364 34.613C160.671 35.8497 161.608 37.3337 162.173 39.065L156.078 41.715C155.548 40.2663 154.647 39.1003 153.375 38.217C152.138 37.3337 150.707 36.892 149.082 36.892C147.563 36.892 146.202 37.263 145.001 38.005C143.835 38.747 142.916 39.7717 142.245 41.079C141.574 42.3863 141.238 43.888 141.238 45.584C141.238 47.28 141.574 48.7817 142.245 50.089C142.916 51.3963 143.835 52.421 145.001 53.163C146.202 53.905 147.563 54.276 149.082 54.276C150.743 54.276 152.191 53.8343 153.428 52.951C154.665 52.0677 155.548 50.884 156.078 49.4L162.173 52.156C161.608 53.7813 160.689 55.2477 159.417 56.555C158.145 57.827 156.626 58.834 154.859 59.576C153.092 60.2827 151.167 60.636 149.082 60.636ZM167.441 60V19.879H174.384V60H167.441ZM194.893 60.636C192.066 60.636 189.487 59.9823 187.155 58.675C184.858 57.3677 183.021 55.5833 181.643 53.322C180.3 51.0607 179.629 48.4813 179.629 45.584C179.629 42.6867 180.3 40.1073 181.643 37.846C183.021 35.5847 184.858 33.8003 187.155 32.493C189.451 31.1857 192.031 30.532 194.893 30.532C197.719 30.532 200.281 31.1857 202.578 32.493C204.874 33.8003 206.694 35.5847 208.037 37.846C209.415 40.072 210.104 42.6513 210.104 45.584C210.104 48.4813 209.415 51.0607 208.037 53.322C206.659 55.5833 204.821 57.3677 202.525 58.675C200.228 59.9823 197.684 60.636 194.893 60.636ZM194.893 54.276C196.447 54.276 197.808 53.905 198.974 53.163C200.175 52.421 201.111 51.3963 201.783 50.089C202.489 48.7463 202.843 47.2447 202.843 45.584C202.843 43.888 202.489 42.404 201.783 41.132C201.111 39.8247 200.175 38.8 198.974 38.058C197.808 37.2807 196.447 36.892 194.893 36.892C193.303 36.892 191.907 37.2807 190.706 38.058C189.504 38.8 188.55 39.8247 187.844 41.132C187.172 42.404 186.837 43.888 186.837 45.584C186.837 47.2447 187.172 48.7463 187.844 50.089C188.55 51.3963 189.504 52.421 190.706 53.163C191.907 53.905 193.303 54.276 194.893 54.276ZM218.655 60V52.58H225.651V60H218.655ZM249.391 71.66C247.236 71.66 245.239 71.3067 243.402 70.6C241.565 69.8933 239.975 68.904 238.632 67.632C237.325 66.3953 236.371 64.929 235.77 63.233L242.236 60.795C242.66 62.1377 243.49 63.2153 244.727 64.028C245.999 64.876 247.554 65.3 249.391 65.3C250.804 65.3 252.041 65.035 253.101 64.505C254.196 63.975 255.044 63.1977 255.645 62.173C256.246 61.1837 256.546 59.9823 256.546 58.569V51.997L257.871 53.587C256.882 55.3183 255.557 56.6257 253.896 57.509C252.235 58.3923 250.345 58.834 248.225 58.834C245.54 58.834 243.137 58.2157 241.017 56.979C238.897 55.7423 237.236 54.0463 236.035 51.891C234.834 49.7357 234.233 47.3153 234.233 44.63C234.233 41.9093 234.834 39.489 236.035 37.369C237.236 35.249 238.879 33.5883 240.964 32.387C243.049 31.1503 245.416 30.532 248.066 30.532C250.221 30.532 252.112 30.9913 253.737 31.91C255.398 32.7933 256.776 34.083 257.871 35.779L256.917 37.528V31.168H263.489V58.569C263.489 61.0777 262.871 63.3213 261.634 65.3C260.433 67.2787 258.772 68.8333 256.652 69.964C254.567 71.0947 252.147 71.66 249.391 71.66ZM249.073 52.421C250.557 52.421 251.847 52.103 252.942 51.467C254.073 50.7957 254.956 49.877 255.592 48.711C256.228 47.545 256.546 46.2023 256.546 44.683C256.546 43.199 256.21 41.874 255.539 40.708C254.903 39.5067 254.02 38.5703 252.889 37.899C251.794 37.2277 250.522 36.892 249.073 36.892C247.624 36.892 246.317 37.2277 245.151 37.899C243.985 38.5703 243.066 39.5067 242.395 40.708C241.759 41.874 241.441 43.199 241.441 44.683C241.441 46.167 241.759 47.492 242.395 48.658C243.066 49.824 243.967 50.7427 245.098 51.414C246.264 52.0853 247.589 52.421 249.073 52.421ZM280.944 60.636C277.87 60.636 275.185 59.9117 272.888 58.463C270.627 56.979 269.072 54.9827 268.224 52.474L273.418 49.983C274.16 51.6083 275.185 52.8803 276.492 53.799C277.835 54.7177 279.319 55.177 280.944 55.177C282.216 55.177 283.223 54.8943 283.965 54.329C284.707 53.7637 285.078 53.0217 285.078 52.103C285.078 51.5377 284.919 51.0783 284.601 50.725C284.319 50.3363 283.912 50.0183 283.382 49.771C282.888 49.4883 282.34 49.2587 281.739 49.082L277.022 47.757C274.584 47.0503 272.729 45.9727 271.457 44.524C270.221 43.0753 269.602 41.3617 269.602 39.383C269.602 37.6163 270.044 36.0793 270.927 34.772C271.846 33.4293 273.1 32.387 274.69 31.645C276.316 30.903 278.171 30.532 280.255 30.532C282.976 30.532 285.379 31.1857 287.463 32.493C289.548 33.8003 291.032 35.6377 291.915 38.005L286.615 40.496C286.121 39.1887 285.29 38.1463 284.124 37.369C282.958 36.5917 281.651 36.203 280.202 36.203C279.036 36.203 278.118 36.468 277.446 36.998C276.775 37.528 276.439 38.217 276.439 39.065C276.439 39.595 276.581 40.0543 276.863 40.443C277.146 40.8317 277.535 41.1497 278.029 41.397C278.559 41.6443 279.16 41.874 279.831 42.086L284.442 43.464C286.81 44.1707 288.629 45.2307 289.901 46.644C291.209 48.0573 291.862 49.7887 291.862 51.838C291.862 53.5693 291.403 55.1063 290.484 56.449C289.566 57.7563 288.294 58.781 286.668 59.523C285.043 60.265 283.135 60.636 280.944 60.636Z" fill="#F5F5F5"/>
</svg>
