<svg width="300" height="59" viewBox="0 0 300 59" fill="none" xmlns="http://www.w3.org/2000/svg">
    <style>
        @media (prefers-color-scheme: dark) {
        #text { fill: #F5F5F5; }
        }
    </style>
    <g id="icon" fill="#5CB85C">
        <path d="M0 2.69611C0 1.20709 1.20709 0 2.69611 0H53.9221C55.4112 0 56.6182 1.20709 56.6182 2.69611V4.04416C56.6182 5.53318 55.4112 6.74027 53.9221 6.74027H2.69611C1.20709 6.74027 0 5.53318 0 4.04416V2.69611Z"/>
        <path d="M0 15.1656C0 13.6766 1.20709 12.4695 2.69611 12.4695H41.7897C43.2787 12.4695 44.4858 13.6766 44.4858 15.1656V16.5137C44.4858 18.0027 43.2787 19.2098 41.7897 19.2098H2.69611C1.20709 19.2098 0 18.0027 0 16.5137V15.1656Z"/>
        <path d="M0 27.6351C0 26.1461 1.20709 24.939 2.69611 24.939H22.9169C24.4059 24.939 25.613 26.1461 25.613 27.6351V28.9831C25.613 30.4722 24.4059 31.6793 22.9169 31.6793H2.69611C1.20709 31.6793 0 30.4722 0 28.9831V27.6351Z"/>
        <path d="M0 40.1046C0 38.6156 1.20709 37.4085 2.69611 37.4085H41.7897C43.2787 37.4085 44.4858 38.6156 44.4858 40.1046V41.4526C44.4858 42.9417 43.2787 44.1487 41.7897 44.1487H2.69611C1.20709 44.1487 0 42.9417 0 41.4526V40.1046Z"/>
        <path d="M0 52.5741C0 51.0851 1.20709 49.878 2.69611 49.878H53.9221C55.4112 49.878 56.6182 51.0851 56.6182 52.5741V53.9221C56.6182 55.4112 55.4112 56.6182 53.9221 56.6182H2.69611C1.20709 56.6182 0 55.4112 0 53.9221V52.5741Z"/>
    </g>
    <g id="text" fill="#2B2B2B">
        <path d="M85.1589 46.1334V16.0175H91.9682V22.9929L91.1932 21.8303C91.7468 19.6528 92.854 18.0289 94.5148 16.9586C96.1756 15.8883 98.1316 15.3532 100.383 15.3532C102.856 15.3532 105.033 15.9991 106.915 17.2908C108.798 18.5825 110.016 20.2802 110.569 22.3839L108.521 22.55C109.444 20.1511 110.828 18.3611 112.673 17.1801C114.518 15.9622 116.64 15.3532 119.039 15.3532C121.18 15.3532 123.081 15.833 124.741 16.7926C126.439 17.7521 127.768 19.0992 128.727 20.8338C129.687 22.5316 130.167 24.5061 130.167 26.7574V46.1334H122.914V28.4735C122.914 27.1449 122.675 26.0008 122.195 25.0412C121.715 24.0816 121.051 23.3435 120.202 22.8268C119.353 22.2732 118.32 21.9964 117.102 21.9964C115.958 21.9964 114.943 22.2732 114.057 22.8268C113.171 23.3435 112.488 24.0816 112.009 25.0412C111.529 26.0008 111.289 27.1449 111.289 28.4735V46.1334H104.037V28.4735C104.037 27.1449 103.797 26.0008 103.317 25.0412C102.837 24.0816 102.154 23.3435 101.269 22.8268C100.42 22.2732 99.4049 21.9964 98.2239 21.9964C97.0798 21.9964 96.0649 22.2732 95.1791 22.8268C94.2933 23.3435 93.6106 24.0816 93.1308 25.0412C92.651 26.0008 92.4111 27.1449 92.4111 28.4735V46.1334H85.1589Z"/>
        <path d="M150.806 46.7977C147.817 46.7977 145.123 46.1149 142.724 44.7494C140.362 43.3469 138.498 41.4647 137.133 39.1027C135.767 36.7037 135.084 34.0095 135.084 31.0201C135.084 28.0307 135.767 25.3549 137.133 22.9929C138.498 20.6309 140.362 18.7671 142.724 17.4015C145.123 16.036 147.817 15.3532 150.806 15.3532C152.947 15.3532 154.94 15.7407 156.785 16.5158C158.631 17.2539 160.218 18.2873 161.546 19.6159C162.912 20.9077 163.89 22.4577 164.48 24.2662L158.114 27.0342C157.56 25.521 156.619 24.3031 155.291 23.3804C153.999 22.4577 152.504 21.9964 150.806 21.9964C149.219 21.9964 147.799 22.3839 146.544 23.159C145.326 23.934 144.366 25.0043 143.665 26.3699C142.964 27.7354 142.613 29.3039 142.613 31.0755C142.613 32.847 142.964 34.4155 143.665 35.7811C144.366 37.1466 145.326 38.2169 146.544 38.9919C147.799 39.767 149.219 40.1545 150.806 40.1545C152.541 40.1545 154.054 39.6932 155.346 38.7705C156.638 37.8478 157.56 36.6115 158.114 35.0614L164.48 37.9401C163.89 39.6378 162.93 41.1694 161.602 42.535C160.273 43.8636 158.686 44.9155 156.841 45.6905C154.995 46.4286 152.984 46.7977 150.806 46.7977Z"/>
        <path d="M169.983 46.1334V4.22583H177.235V46.1334H169.983Z"/>
        <path d="M198.657 46.7977C195.704 46.7977 193.01 46.1149 190.574 44.7494C188.175 43.3838 186.256 41.52 184.817 39.158C183.415 36.796 182.713 34.1018 182.713 31.0755C182.713 28.0491 183.415 25.3549 184.817 22.9929C186.256 20.6309 188.175 18.7671 190.574 17.4015C192.973 16.036 195.668 15.3532 198.657 15.3532C201.61 15.3532 204.285 16.036 206.684 17.4015C209.083 18.7671 210.984 20.6309 212.386 22.9929C213.826 25.318 214.545 28.0122 214.545 31.0755C214.545 34.1018 213.826 36.796 212.386 39.158C210.947 41.52 209.028 43.3838 206.629 44.7494C204.23 46.1149 201.573 46.7977 198.657 46.7977ZM198.657 40.1545C200.281 40.1545 201.702 39.767 202.92 38.9919C204.175 38.2169 205.153 37.1466 205.854 35.7811C206.592 34.3786 206.961 32.8101 206.961 31.0755C206.961 29.3039 206.592 27.7539 205.854 26.4252C205.153 25.0597 204.175 23.9894 202.92 23.2143C201.702 22.4024 200.281 21.9964 198.657 21.9964C196.996 21.9964 195.538 22.4024 194.284 23.2143C193.029 23.9894 192.032 25.0597 191.294 26.4252C190.593 27.7539 190.242 29.3039 190.242 31.0755C190.242 32.8101 190.593 34.3786 191.294 35.7811C192.032 37.1466 193.029 38.2169 194.284 38.9919C195.538 39.767 196.996 40.1545 198.657 40.1545Z"/>
        <path d="M223.477 46.1334V38.383H230.785V46.1334H223.477Z"/>
        <path d="M255.582 58.3126C253.331 58.3126 251.246 57.9435 249.327 57.2054C247.407 56.4673 245.747 55.4339 244.344 54.1052C242.979 52.8135 241.982 51.2819 241.355 49.5104L248.109 46.9638C248.552 48.3662 249.419 49.4919 250.711 50.3408C252.039 51.2265 253.663 51.6694 255.582 51.6694C257.059 51.6694 258.35 51.3926 259.457 50.839C260.602 50.2854 261.487 49.4734 262.115 48.4032C262.742 47.3698 263.056 46.1149 263.056 44.6387V37.774L264.44 39.4348C263.406 41.2433 262.022 42.6088 260.288 43.5315C258.553 44.4541 256.579 44.9155 254.364 44.9155C251.559 44.9155 249.05 44.2696 246.835 42.9779C244.621 41.6861 242.886 39.9146 241.632 37.6633C240.377 35.412 239.749 32.8839 239.749 30.079C239.749 27.2372 240.377 24.709 241.632 22.4946C242.886 20.2802 244.603 18.5456 246.78 17.2908C248.957 15.9991 251.43 15.3532 254.198 15.3532C256.45 15.3532 258.424 15.833 260.122 16.7926C261.856 17.7152 263.296 19.0623 264.44 20.8338L263.443 22.6607V16.0175H270.308V44.6387C270.308 47.259 269.662 49.6026 268.37 51.6694C267.116 53.7362 265.381 55.3601 263.167 56.5411C260.989 57.7221 258.461 58.3126 255.582 58.3126ZM255.25 38.2169C256.8 38.2169 258.147 37.8847 259.291 37.2204C260.472 36.5192 261.395 35.5596 262.059 34.3417C262.724 33.1238 263.056 31.7213 263.056 30.1343C263.056 28.5843 262.705 27.2003 262.004 25.9823C261.34 24.7275 260.417 23.7495 259.236 23.0482C258.092 22.347 256.763 21.9964 255.25 21.9964C253.737 21.9964 252.371 22.347 251.153 23.0482C249.936 23.7495 248.976 24.7275 248.275 25.9823C247.61 27.2003 247.278 28.5843 247.278 30.1343C247.278 31.6844 247.61 33.0684 248.275 34.2863C248.976 35.5043 249.917 36.4638 251.098 37.1651C252.316 37.8663 253.7 38.2169 255.25 38.2169Z"/>
        <path d="M288.541 46.7977C285.33 46.7977 282.525 46.0411 280.126 44.5279C277.764 42.9779 276.14 40.8926 275.254 38.2723L280.679 35.6703C281.454 37.368 282.525 38.6967 283.89 39.6563C285.293 40.6158 286.843 41.0956 288.541 41.0956C289.869 41.0956 290.921 40.8004 291.696 40.2099C292.471 39.6194 292.859 38.8443 292.859 37.8847C292.859 37.2942 292.693 36.8144 292.36 36.4454C292.065 36.0394 291.641 35.7072 291.087 35.4489C290.57 35.1536 289.998 34.9138 289.371 34.7292L284.444 33.3452C281.897 32.6071 279.96 31.4814 278.631 29.9683C277.339 28.4551 276.693 26.6651 276.693 24.5983C276.693 22.753 277.155 21.1476 278.077 19.782C279.037 18.3796 280.347 17.2908 282.008 16.5158C283.706 15.7407 285.643 15.3532 287.821 15.3532C290.663 15.3532 293.172 16.036 295.35 17.4015C297.527 18.7671 299.077 20.6862 300 23.159L294.464 25.7609C293.947 24.3953 293.08 23.3066 291.862 22.4946C290.644 21.6827 289.279 21.2767 287.765 21.2767C286.548 21.2767 285.588 21.5535 284.887 22.1071C284.186 22.6607 283.835 23.3804 283.835 24.2662C283.835 24.8198 283.983 25.2996 284.278 25.7055C284.573 26.1115 284.979 26.4437 285.496 26.702C286.049 26.9604 286.677 27.2003 287.378 27.4217L292.194 28.8611C294.667 29.5992 296.568 30.7064 297.896 32.1827C299.262 33.6589 299.945 35.4674 299.945 37.6079C299.945 39.4164 299.465 41.0218 298.505 42.4243C297.546 43.7898 296.217 44.8601 294.519 45.6351C292.822 46.4102 290.829 46.7977 288.541 46.7977Z"/>
    </g>
</svg>
