<svg width="297" height="87" viewBox="0 0 297 87" fill="#F0F0F0" xmlns="http://www.w3.org/2000/svg">
    <style>
        .text { fill: #0f0f0f; }
        @media (prefers-color-scheme: dark) {
            .text { fill: #f0f0f0; }
        }
    </style>
    <path class="text" d="M67.233 58V29.168H73.752V35.846L73.01 34.733C73.54 32.6483 74.6 31.0937 76.19 30.069C77.78 29.0443 79.6527 28.532 81.808 28.532C84.1753 28.532 86.26 29.1503 88.062 30.387C89.864 31.6237 91.03 33.249 91.56 35.263L89.599 35.422C90.4823 33.1253 91.8073 31.4117 93.574 30.281C95.3407 29.115 97.3723 28.532 99.669 28.532C101.718 28.532 103.538 28.9913 105.128 29.91C106.753 30.8287 108.025 32.1183 108.944 33.779C109.863 35.4043 110.322 37.2947 110.322 39.45V58H103.379V41.093C103.379 39.821 103.149 38.7257 102.69 37.807C102.231 36.8883 101.595 36.1817 100.782 35.687C99.9693 35.157 98.98 34.892 97.814 34.892C96.7187 34.892 95.747 35.157 94.899 35.687C94.051 36.1817 93.3973 36.8883 92.938 37.807C92.4787 38.7257 92.249 39.821 92.249 41.093V58H85.306V41.093C85.306 39.821 85.0763 38.7257 84.617 37.807C84.1577 36.8883 83.504 36.1817 82.656 35.687C81.8433 35.157 80.8717 34.892 79.741 34.892C78.6457 34.892 77.674 35.157 76.826 35.687C75.978 36.1817 75.3243 36.8883 74.865 37.807C74.4057 38.7257 74.176 39.821 74.176 41.093V58H67.233ZM130.082 58.636C127.22 58.636 124.641 57.9823 122.344 56.675C120.083 55.3323 118.298 53.5303 116.991 51.269C115.684 48.9723 115.03 46.393 115.03 43.531C115.03 40.669 115.684 38.1073 116.991 35.846C118.298 33.5847 120.083 31.8003 122.344 30.493C124.641 29.1857 127.22 28.532 130.082 28.532C132.131 28.532 134.039 28.903 135.806 29.645C137.573 30.3517 139.092 31.341 140.364 32.613C141.671 33.8497 142.608 35.3337 143.173 37.065L137.078 39.715C136.548 38.2663 135.647 37.1003 134.375 36.217C133.138 35.3337 131.707 34.892 130.082 34.892C128.563 34.892 127.202 35.263 126.001 36.005C124.835 36.747 123.916 37.7717 123.245 39.079C122.574 40.3863 122.238 41.888 122.238 43.584C122.238 45.28 122.574 46.7817 123.245 48.089C123.916 49.3963 124.835 50.421 126.001 51.163C127.202 51.905 128.563 52.276 130.082 52.276C131.743 52.276 133.191 51.8343 134.428 50.951C135.665 50.0677 136.548 48.884 137.078 47.4L143.173 50.156C142.608 51.7813 141.689 53.2477 140.417 54.555C139.145 55.827 137.626 56.834 135.859 57.576C134.092 58.2827 132.167 58.636 130.082 58.636ZM148.441 58V17.879H155.384V58H148.441ZM175.893 58.636C173.066 58.636 170.487 57.9823 168.155 56.675C165.858 55.3677 164.021 53.5833 162.643 51.322C161.3 49.0607 160.629 46.4813 160.629 43.584C160.629 40.6867 161.3 38.1073 162.643 35.846C164.021 33.5847 165.858 31.8003 168.155 30.493C170.451 29.1857 173.031 28.532 175.893 28.532C178.719 28.532 181.281 29.1857 183.578 30.493C185.874 31.8003 187.694 33.5847 189.037 35.846C190.415 38.072 191.104 40.6513 191.104 43.584C191.104 46.4813 190.415 49.0607 189.037 51.322C187.659 53.5833 185.821 55.3677 183.525 56.675C181.228 57.9823 178.684 58.636 175.893 58.636ZM175.893 52.276C177.447 52.276 178.808 51.905 179.974 51.163C181.175 50.421 182.111 49.3963 182.783 48.089C183.489 46.7463 183.843 45.2447 183.843 43.584C183.843 41.888 183.489 40.404 182.783 39.132C182.111 37.8247 181.175 36.8 179.974 36.058C178.808 35.2807 177.447 34.892 175.893 34.892C174.303 34.892 172.907 35.2807 171.706 36.058C170.504 36.8 169.55 37.8247 168.844 39.132C168.172 40.404 167.837 41.888 167.837 43.584C167.837 45.2447 168.172 46.7463 168.844 48.089C169.55 49.3963 170.504 50.421 171.706 51.163C172.907 51.905 174.303 52.276 175.893 52.276ZM199.655 58V50.58H206.651V58H199.655ZM230.391 69.66C228.236 69.66 226.239 69.3067 224.402 68.6C222.565 67.8933 220.975 66.904 219.632 65.632C218.325 64.3953 217.371 62.929 216.77 61.233L223.236 58.795C223.66 60.1377 224.49 61.2153 225.727 62.028C226.999 62.876 228.554 63.3 230.391 63.3C231.804 63.3 233.041 63.035 234.101 62.505C235.196 61.975 236.044 61.1977 236.645 60.173C237.246 59.1837 237.546 57.9823 237.546 56.569V49.997L238.871 51.587C237.882 53.3183 236.557 54.6257 234.896 55.509C233.235 56.3923 231.345 56.834 229.225 56.834C226.54 56.834 224.137 56.2157 222.017 54.979C219.897 53.7423 218.236 52.0463 217.035 49.891C215.834 47.7357 215.233 45.3153 215.233 42.63C215.233 39.9093 215.834 37.489 217.035 35.369C218.236 33.249 219.879 31.5883 221.964 30.387C224.049 29.1503 226.416 28.532 229.066 28.532C231.221 28.532 233.112 28.9913 234.737 29.91C236.398 30.7933 237.776 32.083 238.871 33.779L237.917 35.528V29.168H244.489V56.569C244.489 59.0777 243.871 61.3213 242.634 63.3C241.433 65.2787 239.772 66.8333 237.652 67.964C235.567 69.0947 233.147 69.66 230.391 69.66ZM230.073 50.421C231.557 50.421 232.847 50.103 233.942 49.467C235.073 48.7957 235.956 47.877 236.592 46.711C237.228 45.545 237.546 44.2023 237.546 42.683C237.546 41.199 237.21 39.874 236.539 38.708C235.903 37.5067 235.02 36.5703 233.889 35.899C232.794 35.2277 231.522 34.892 230.073 34.892C228.624 34.892 227.317 35.2277 226.151 35.899C224.985 36.5703 224.066 37.5067 223.395 38.708C222.759 39.874 222.441 41.199 222.441 42.683C222.441 44.167 222.759 45.492 223.395 46.658C224.066 47.824 224.967 48.7427 226.098 49.414C227.264 50.0853 228.589 50.421 230.073 50.421ZM261.944 58.636C258.87 58.636 256.185 57.9117 253.888 56.463C251.627 54.979 250.072 52.9827 249.224 50.474L254.418 47.983C255.16 49.6083 256.185 50.8803 257.492 51.799C258.835 52.7177 260.319 53.177 261.944 53.177C263.216 53.177 264.223 52.8943 264.965 52.329C265.707 51.7637 266.078 51.0217 266.078 50.103C266.078 49.5377 265.919 49.0783 265.601 48.725C265.319 48.3363 264.912 48.0183 264.382 47.771C263.888 47.4883 263.34 47.2587 262.739 47.082L258.022 45.757C255.584 45.0503 253.729 43.9727 252.457 42.524C251.221 41.0753 250.602 39.3617 250.602 37.383C250.602 35.6163 251.044 34.0793 251.927 32.772C252.846 31.4293 254.1 30.387 255.69 29.645C257.316 28.903 259.171 28.532 261.255 28.532C263.976 28.532 266.379 29.1857 268.463 30.493C270.548 31.8003 272.032 33.6377 272.915 36.005L267.615 38.496C267.121 37.1887 266.29 36.1463 265.124 35.369C263.958 34.5917 262.651 34.203 261.202 34.203C260.036 34.203 259.118 34.468 258.446 34.998C257.775 35.528 257.439 36.217 257.439 37.065C257.439 37.595 257.581 38.0543 257.863 38.443C258.146 38.8317 258.535 39.1497 259.029 39.397C259.559 39.6443 260.16 39.874 260.831 40.086L265.442 41.464C267.81 42.1707 269.629 43.2307 270.901 44.644C272.209 46.0573 272.862 47.7887 272.862 49.838C272.862 51.5693 272.403 53.1063 271.484 54.449C270.566 55.7563 269.294 56.781 267.668 57.523C266.043 58.265 264.135 58.636 261.944 58.636Z"/>
    <g fill="#5cb85c">
        <rect x="4" y="22" width="41" height="5" rx="2"/>
        <rect x="4" y="31.25" width="33" height="5" rx="2"/>
        <rect x="4" y="40.5" width="19" height="5" rx="2"/>
        <rect x="4" y="49.75" width="33" height="5" rx="2"/>
        <rect x="4" y="59" width="41" height="5" rx="2"/>
    </g>
</svg>
