<?xml version="1.0" standalone="no"?>
<!DOCTYPE svg PUBLIC "-//W3C//DTD SVG 1.1//EN" "http://www.w3.org/Graphics/SVG/1.1/DTD/svg11.dtd">
<svg xmlns="http://www.w3.org/2000/svg">
<defs >
<font id="Play" horiz-adv-x="562" ><font-face
    font-family="Play"
    units-per-em="1000"
    panose-1="0 0 5 0 0 0 0 0 0 0"
    ascent="937"
    descent="-220"
    alphabetic="0" />
<glyph unicode=" " glyph-name="space" horiz-adv-x="230" />
<glyph unicode="!" glyph-name="exclam" horiz-adv-x="280" d="M80 649H200L165 179H115L80 649ZM82 108H198V0H82V108Z" />
<glyph unicode="&quot;" glyph-name="quotedbl" horiz-adv-x="443" d="M85 649H171V429H85V649ZM272 649H358V429H272V649Z" />
<glyph unicode="#" glyph-name="numbersign" horiz-adv-x="580" d="M158 199H60V261H170L196 388H60V450H208L245 639H311L274 450H358L395 639H461L424 450H520V388H411L386 261H520V199H374L335 0H269L308 199H224L185 0H119L158 199ZM320 261L346 388H261L236
261H320Z" />
<glyph unicode="$" glyph-name="dollar" horiz-adv-x="580" d="M264 -10Q188 -10 73 6V85Q77 85 109 78Q138 72 157 70T203 65Q234 62 264 62V290H235Q140 290 100 328T60 446V488Q60 560 106 596T264 638V709H321V639Q383 639 482 628V557Q359 570 321 572V362H351Q418
362 455 346T508 298T524 210V173Q524 82 475 40T321 -8V-140H264V-10ZM264 571Q200 567 177 549T154 491V427Q154 393 179 378T264 362V571ZM375 67T402 84T429 140V214Q429 256 405 273T321 290V64Q375 67 402 84Z" />
<glyph unicode="%" glyph-name="percent" horiz-adv-x="855" d="M555 660H632L308 -10H231L555 660ZM167 313T144 316T96 328Q46 346 46 412V537Q46 600 85 624T204 649Q283 649 322 625T361 537V412Q361 346 312 328Q288 319 265 316T204 313Q167 313 144 316ZM248
365T265 375T283 416V541Q283 575 266 586T204 597Q159 597 142 586T124 541V416Q124 385 142 375T204 365Q248 365 265 375ZM615 -10T592 -7T544 5Q494 23 494 89V214Q494 277 533 301T652 326Q731 326 770 302T809 214V89Q809 23 760 5Q736 -4 713 -7T652 -10Q615
-10 592 -7ZM696 42T713 52T731 93V218Q731 252 714 263T652 274Q607 274 590 263T572 218V93Q572 62 590 52T652 42Q696 42 713 52Z" />
<glyph unicode="&amp;" glyph-name="ampersand" horiz-adv-x="636" d="M60 -10T60 105V214Q60 290 152 331L199 353L160 399Q129 434 129 468V565Q129 660 295 660Q362 660 431 645V572Q357 597 293 597Q250 597 232 588T214 557V483Q214 467 224 456L466 163Q469
181 469 205V301H545V209Q545 141 524 97Q565 59 584 59H610V0H546Q511 0 473 34Q409 -10 278 -10Q60 -10 60 105ZM296 52Q394 52 428 80L235 310L200 295Q179 285 167 265T154 223V101Q154 52 285 52H296Z" />
<glyph unicode="&apos;" glyph-name="quotesingle" horiz-adv-x="256" d="M85 649H171V429H85V649Z" />
<glyph unicode="(" glyph-name="parenleft" horiz-adv-x="331" d="M79 88T79 276Q79 377 114 470T224 679H305Q234 555 200 462T166 276Q166 182 200 87T305 -127H224Q79 88 79 276Z" />
<glyph unicode=")" glyph-name="parenright" horiz-adv-x="331" d="M96 -9T130 86T165 276Q165 367 132 459T26 679H107Q181 564 216 471T252 276Q252 88 107 -127H26Q96 -9 130 86Z" />
<glyph unicode="*" glyph-name="asterisk" horiz-adv-x="398" d="M69 361L163 467L26 496L49 565L178 511L165 649H238L225 511L350 565L372 496L238 467L329 361L268 320L199 439L129 320L69 361Z" />
<glyph unicode="+" glyph-name="plus" horiz-adv-x="500" d="M216 282H60V349H216V515H283V349H440V282H283V115H216V282Z" />
<glyph unicode="," glyph-name="comma" horiz-adv-x="256" d="M85 108H191L97 -112H39L85 108Z" />
<glyph unicode="-" glyph-name="hyphen" horiz-adv-x="358" d="M40 322H318V250H40V322Z" />
<glyph unicode="." glyph-name="period" horiz-adv-x="256" d="M70 108H186V0H70V108Z" />
<glyph unicode="/" glyph-name="slash" horiz-adv-x="421" d="M334 660H411L87 -10H10L334 660Z" />
<glyph unicode="0" glyph-name="zero" horiz-adv-x="580" d="M245 -10T218 -7T159 5Q126 14 107 31T74 81Q61 111 61 156V484Q61 529 74 563T108 617Q127 634 158 644T222 658Q258 660 289 660Q333 660 360 657T419 645Q452 635 472 617T506 566Q519 533 519 485V156Q519
115 506 83T472 33Q452 16 421 6T358 -7Q330 -10 289 -10Q245 -10 218 -7ZM344 49T373 56T415 86T428 151V491Q428 538 415 561T373 593T290 601Q235 601 207 593T165 562T152 491V151Q152 108 165 86T208 57T291 49Q344 49 373 56Z" />
<glyph unicode="1" glyph-name="one" horiz-adv-x="580" d="M319 559L122 430V512L320 649H406V0H319V559Z" />
<glyph unicode="2" glyph-name="two" horiz-adv-x="580" d="M72 116Q72 144 81 168T106 210Q118 224 142 240T189 268Q208 278 239 291L347 339Q411 367 411 426V515Q411 561 383 576T285 592Q216 592 95 571V641Q196 660 304 660Q412 660 460 628T508 519V413Q508
377 496 354T458 312T380 270L230 201Q164 171 164 113V70H508V0H72V116Z" />
<glyph unicode="3" glyph-name="three" horiz-adv-x="580" d="M182 -10T77 9V81Q196 56 276 56Q409 56 409 131V242Q409 283 365 296Q344 301 328 302T285 304H160V366H268Q294 366 310 367T347 375Q369 380 381 394T393 430V546Q393 597 273 597Q193 597 90 581V650Q176
659 272 659Q383 659 433 635T484 551V426Q484 395 459 375T395 348V344Q419 340 434 336T468 322Q503 304 503 259V129Q503 95 488 68T450 26Q430 12 397 4T332 -8Q294 -10 266 -10Q182 -10 77 9Z" />
<glyph unicode="4" glyph-name="four" horiz-adv-x="580" d="M375 142H52V221L346 649H458V211H528V142H458V0H375V142ZM375 211V570L132 211H375Z" />
<glyph unicode="5" glyph-name="five" horiz-adv-x="580" d="M197 -10T87 8V80Q203 56 281 56Q342 56 370 73T399 131V260Q399 302 363 314Q346 319 332 320T294 322H102V649H476V581H192V384H342Q382 384 413 375T468 342Q493 317 493 277V129Q493 94 481 68T447
26Q428 12 399 3T340 -8Q304 -10 278 -10Q197 -10 87 8Z" />
<glyph unicode="6" glyph-name="six" horiz-adv-x="580" d="M245 -10T218 -7T162 5Q131 14 113 31T83 81Q71 113 71 156V484Q71 529 85 563T123 617Q143 634 177 644T245 658Q283 660 314 660Q375 660 478 651V583Q375 596 301 596Q245 596 216 588T174 557T160
486V384H307Q357 384 382 382T435 374Q463 368 476 354T500 314Q509 289 509 251V156Q509 48 441 16Q408 1 375 -4T289 -10Q245 -10 218 -7ZM344 49T370 56T408 85T420 151V248Q420 281 410 297T373 320T290 326H160V151Q160 107 172 86T211 57T291 49Q344 49 370
56Z" />
<glyph unicode="7" glyph-name="seven" horiz-adv-x="580" d="M434 584H62V649H518V584L270 0H174L434 584Z" />
<glyph unicode="8" glyph-name="eight" horiz-adv-x="580" d="M167 -10T113 19T59 117V238Q59 277 89 303T171 342V346Q126 356 104 378T81 439V540Q81 568 90 588T120 626Q163 660 289 660Q415 660 458 626Q479 608 488 588T497 540V439Q497 400 475 378T408
346V342Q459 330 489 304T520 238V119Q520 49 467 20T289 -10Q167 -10 113 19ZM355 364T380 378T406 430V535Q406 572 379 587T289 602Q226 602 199 587T172 535V430Q172 392 197 378T289 364Q355 364 380 378ZM362 48T392 63Q422 78 422 114V235Q422 286 379 299Q358
305 340 306T289 308Q256 308 239 307T200 299Q156 286 156 235V114Q156 78 186 63Q216 48 289 48Q362 48 392 63Z" />
<glyph unicode="9" glyph-name="nine" horiz-adv-x="580" d="M190 -10T102 1V68Q198 51 268 51Q327 51 359 62T406 102T420 180V265H273Q223 265 198 267T145 275Q117 281 104 295T80 335Q71 361 71 398V494Q71 602 139 634Q172 649 205 654T291 660Q335 660 362
658T418 646Q449 636 467 619T497 570Q509 539 509 494V166Q509 71 453 31T271 -10Q190 -10 102 1ZM420 323V499Q420 543 408 564T369 593T289 601Q236 601 210 594T172 565T160 499V401Q160 368 170 352T207 329T290 323H420Z" />
<glyph unicode=":" glyph-name="colon" horiz-adv-x="256" d="M70 484H186V376H70V484ZM70 108H186V0H70V108Z" />
<glyph unicode=";" glyph-name="semicolon" horiz-adv-x="256" d="M70 484H186V376H70V484ZM85 108H191L97 -112H39L85 108Z" />
<glyph unicode="&lt;" glyph-name="less" horiz-adv-x="500" d="M60 275V347L440 560V479L138 308L440 143V62L60 275Z" />
<glyph unicode="=" glyph-name="equal" horiz-adv-x="500" d="M60 429H440V362H60V429ZM60 269H440V202H60V269Z" />
<glyph unicode="&gt;" glyph-name="greater" horiz-adv-x="500" d="M60 143L362 308L60 479V560L440 347V275L60 62V143Z" />
<glyph unicode="?" glyph-name="question" horiz-adv-x="533" d="M207 195Q207 246 223 283T267 341Q298 365 317 377Q377 417 377 481V511Q377 556 349 572T251 588Q181 588 60 567V640Q162 659 270 659Q378 659 425 627T473 518V468Q473 431 460 402T426 354Q386
318 338 290Q317 277 304 257T291 214V171H207V195ZM190 108H306V0H190V108Z" />
<glyph unicode="@" glyph-name="at" horiz-adv-x="737" d="M316 -90T280 -86T205 -71Q160 -59 130 -41T81 10Q60 43 60 86V393Q60 449 89 489T171 547Q220 564 265 571T362 579Q418 579 465 572T562 548Q616 530 646 490T677 394V145Q677 97 653 77T578 56H547Q514
56 491 66T463 93Q453 71 432 64Q410 56 349 56Q292 56 261 67T215 109T200 198V308Q200 358 215 386T267 427T369 439Q435 439 468 427T515 388T528 308V129Q528 115 536 110T567 105Q589 105 596 109T604 129V406Q604 441 580 467T516 505Q442 526 363 526Q285
526 218 505Q181 493 160 467T138 406V79Q138 47 159 24T219 -12Q283 -33 364 -33Q416 -33 492 -24T600 -7V-65Q574 -74 501 -82T362 -90Q316 -90 280 -86ZM405 107T423 113T448 134T455 184V304Q455 344 450 360T427 382T366 387Q325 387 308 382T284 360T278
304V184Q278 149 284 133T308 112T366 107Q405 107 423 113Z" />
<glyph unicode="A" glyph-name="A" horiz-adv-x="652" d="M273 649H385L637 0H536L462 197H184L111 0H15L273 649ZM438 264L328 557H319L209 264H438Z" />
<glyph unicode="B" glyph-name="B" horiz-adv-x="613" d="M84 649H316Q399 649 448 632Q493 616 508 592T524 526V439Q524 400 502 379T435 347V343Q488 334 520 307T553 238V129Q553 58 500 29T323 0H84V649ZM319 365Q380 365 406 383T433 442V518Q433 555 406
570T316 585H181V365H319ZM323 67Q396 67 426 82Q456 97 456 133V231Q456 257 446 272T413 295Q391 301 374 302T323 304H181V67H323Z" />
<glyph unicode="C" glyph-name="C" horiz-adv-x="564" d="M64 -10T64 166V474Q64 660 337 660Q430 660 515 641V569Q419 593 339 593Q300 593 271 589T215 573Q157 548 157 475V171Q157 59 343 59Q423 59 519 83V9Q434 -10 337 -10Q64 -10 64 166Z" />
<glyph unicode="D" glyph-name="D" horiz-adv-x="679" d="M84 649H342Q615 649 615 463V176Q615 0 343 0H84V649ZM336 66Q522 66 522 178V464Q522 500 507 525T465 562Q438 573 409 577T341 582H181V66H336Z" />
<glyph unicode="E" glyph-name="E" horiz-adv-x="580" d="M84 649H520V581H181V369H487V301H181V68H530V0H84V649Z" />
<glyph unicode="F" glyph-name="F" horiz-adv-x="560" d="M84 649H530V581H181V369H497V301H181V0H84V649Z" />
<glyph unicode="G" glyph-name="G" horiz-adv-x="666" d="M317 -10T282 -6T207 9Q163 21 133 39T84 90Q64 124 64 166V473Q64 529 93 569T173 627Q222 644 266 651T363 659Q487 659 587 643V568Q549 577 479 584T365 592Q160 592 160 474V168Q160 136 179 112T233
77Q265 65 297 61T369 56Q436 56 512 74V301H360V369H602V20Q472 -10 363 -10Q317 -10 282 -6Z" />
<glyph unicode="H" glyph-name="H" horiz-adv-x="707" d="M84 649H181V369H526V649H623V0H526V301H181V0H84V649Z" />
<glyph unicode="I" glyph-name="I" horiz-adv-x="265" d="M84 649H181V0H84V649Z" />
<glyph unicode="J" glyph-name="J" horiz-adv-x="403" d="M59 -10T20 1V66Q80 50 127 50Q166 50 186 57T214 82T222 139V649H319V143Q319 81 301 49T245 3T139 -10Q59 -10 20 1Z" />
<glyph unicode="K" glyph-name="K" horiz-adv-x="609" d="M84 649H181V0H84V649ZM183 345L473 649H590L298 349L619 0H493L183 345Z" />
<glyph unicode="L" glyph-name="L" horiz-adv-x="520" d="M84 649H181V68H500V0H84V649Z" />
<glyph unicode="M" glyph-name="M" horiz-adv-x="861" d="M84 649H229L437 109L440 108L637 649H777V0H692V549H687L478 0H391L176 549H171V0H84V649Z" />
<glyph unicode="N" glyph-name="N" horiz-adv-x="723" d="M84 649H201L554 113V649H639V0H522L169 545V0H84V649Z" />
<glyph unicode="O" glyph-name="O" horiz-adv-x="679" d="M66 -10T66 166V473Q66 659 338 659Q613 659 613 474V166Q613 72 537 31T338 -10Q66 -10 66 166ZM519 55T519 167V476Q519 596 339 596Q252 596 206 569T159 476V167Q159 55 340 55Q519 55 519 167Z" />
<glyph unicode="P" glyph-name="P" horiz-adv-x="570" d="M84 649H296Q341 649 368 647T427 638Q459 631 478 617T512 579Q525 556 525 521V386Q525 305 463 270T278 234H181V0H84V649ZM291 295Q354 295 392 318T430 391V509Q430 536 416 553T376 578Q351 584
334 586T289 588H180V295H291Z" />
<glyph unicode="Q" glyph-name="Q" horiz-adv-x="676" d="M64 0T64 176V473Q64 659 337 659Q611 659 611 474V206Q611 114 522 55H682V0H337Q64 0 64 176ZM518 65T518 177V476Q518 596 338 596Q298 596 269 592T214 575Q157 548 157 476V177Q157 65 339 65Q518
65 518 177Z" />
<glyph unicode="R" glyph-name="R" horiz-adv-x="632" d="M84 649H312Q398 649 446 639T517 601T540 522V410Q540 352 493 321T372 289L580 0H461L275 277H181V0H84V649ZM308 341Q380 341 411 358T443 422V512Q443 585 317 585H181V341H308Z" />
<glyph unicode="S" glyph-name="S" horiz-adv-x="569" d="M188 -10T73 6V87Q189 62 277 62Q351 62 385 78T419 140V224Q419 266 395 283T311 300H235Q140 300 100 338T60 456V508Q60 561 83 594T162 643T315 659Q380 659 482 648V575Q368 592 308 592Q215 592
185 574Q154 555 154 511V437Q154 403 178 388T263 372H341Q408 372 445 356T498 308T514 220V173Q514 104 489 64T410 7T271 -10Q188 -10 73 6Z" />
<glyph unicode="T" glyph-name="T" horiz-adv-x="585" d="M244 581H24V649H561V581H342V0H244V581Z" />
<glyph unicode="U" glyph-name="U" horiz-adv-x="676" d="M284 -10T245 -3T167 21Q127 39 106 76T84 166V649H177V167Q177 106 218 81T339 55Q419 55 458 80T498 167V649H591V166Q591 -10 337 -10Q284 -10 245 -3Z" />
<glyph unicode="V" glyph-name="V" horiz-adv-x="652" d="M15 649H116L324 92H333L541 649H637L379 0H267L15 649Z" />
<glyph unicode="W" glyph-name="W" horiz-adv-x="968" d="M8 649H111L272 92H274L435 649H538L699 92H701L862 649H960L751 0H638L483 540L324 0H211L8 649Z" />
<glyph unicode="X" glyph-name="X" horiz-adv-x="604" d="M247 331L18 649H129L302 398L475 649H586L357 331L596 0H485L302 264L119 0H8L247 331Z" />
<glyph unicode="Y" glyph-name="Y" horiz-adv-x="584" d="M243 262L8 649H119L292 344L465 649H576L340 265V0H243V262Z" />
<glyph unicode="Z" glyph-name="Z" horiz-adv-x="580" d="M40 68L422 581H50V649H534V581L152 68H540V0H40V68Z" />
<glyph unicode="[" glyph-name="bracketleft" horiz-adv-x="330" d="M84 736H310V688H171V-142H310V-190H84V736Z" />
<glyph unicode="\" glyph-name="backslash" horiz-adv-x="421" d="M10 659H87L411 -10H334L10 659Z" />
<glyph unicode="]" glyph-name="bracketright" horiz-adv-x="330" d="M20 -142H159V688H20V736H246V-190H20V-142Z" />
<glyph unicode="^" glyph-name="asciicircum" horiz-adv-x="321" d="M96 680H223L301 453H233L160 640L88 453H20L96 680Z" />
<glyph unicode="_" glyph-name="underscore" horiz-adv-x="580" d="M71 -70H509V-141H71V-70Z" />
<glyph unicode="`" glyph-name="grave" horiz-adv-x="399" d="M100 680H209L299 553H225L100 680Z" />
<glyph unicode="a" glyph-name="a" horiz-adv-x="538" d="M158 -10T121 3T67 49T50 144Q50 199 65 229T118 273T225 286H370V363Q370 390 360 404T325 425T253 431Q178 431 87 419V485Q186 494 266 494Q350 494 390 482T445 438T460 342V0H373V46Q362 -10 227
-10Q158 -10 121 3ZM242 49Q291 49 325 56Q370 65 370 98V230H231Q188 230 169 224T144 199T138 141Q138 105 145 86T170 58T224 49H242Z" />
<glyph unicode="b" glyph-name="b" horiz-adv-x="579" d="M240 -10T208 -5T143 16Q78 47 78 158V700H168V555V498Q167 472 167 440Q172 463 209 479Q247 494 319 494Q519 494 519 357V158Q519 115 507 83T474 33Q456 16 425 6T362 -7Q334 -10 294 -10Q240 -10
208 -5ZM348 49T375 56T415 84T427 145V335Q427 376 415 396T376 423T295 430Q246 430 219 422T180 394T168 335V145Q168 104 179 84T218 57T296 49Q348 49 375 56Z" />
<glyph unicode="c" glyph-name="c" horiz-adv-x="464" d="M223 -10T201 -8T149 2Q118 10 101 26T72 73Q60 103 60 148V326Q60 407 91 442Q108 462 125 472T171 487Q199 491 221 492T283 494Q352 494 421 479V413Q341 433 272 433Q220 433 196 426T162 399T152
339V141Q152 104 162 86T200 61T282 53Q355 53 428 72V4Q360 -10 273 -10Q223 -10 201 -8Z" />
<glyph unicode="d" glyph-name="d" horiz-adv-x="571" d="M179 -10T138 4T79 52T60 144V357Q60 430 105 462T256 494Q319 494 364 478T411 432H413L411 555V700H501V0H413V57Q413 30 370 11Q327 -10 251 -10Q179 -10 138 4ZM345 52T378 69T411 127V366Q411 431
278 431Q198 431 174 419Q149 407 149 366V127Q149 86 176 69T270 52Q345 52 378 69Z" />
<glyph unicode="e" glyph-name="e" horiz-adv-x="535" d="M60 -10T60 138V329Q60 417 110 455T274 494Q381 494 428 457T476 329V222H151V149Q151 99 186 77T294 55Q363 55 457 79V10Q365 -10 282 -10Q60 -10 60 138ZM386 281V357Q386 401 360 417T269 434Q207
434 179 418T151 357V281H386Z" />
<glyph unicode="f" glyph-name="f" horiz-adv-x="380" d="M121 425H10V484H121V562Q121 641 165 675T301 710Q335 710 382 705V646Q344 651 304 651Q254 651 233 633T211 568V484H372V425H211V0H121V425Z" />
<glyph unicode="g" glyph-name="g" horiz-adv-x="569" d="M162 -220T94 -209V-145Q214 -159 269 -159Q338 -159 369 -137T401 -64V52Q399 20 358 5T253 -10Q178 -10 137 4T78 50T60 137V334Q60 420 106 457T259 494Q385 494 407 437V484H491V-46Q491 -113 466
-151T391 -204T261 -220Q162 -220 94 -209ZM343 50T372 67T401 131V350Q401 383 391 400T352 424T270 432Q219 432 194 425T159 401T149 350V131Q149 97 159 80T195 57T272 50Q343 50 372 67Z" />
<glyph unicode="h" glyph-name="h" horiz-adv-x="573" d="M78 700H168V425Q182 494 327 494Q420 494 457 461T495 355V0H405V349Q405 368 402 380T390 404Q370 429 301 429Q246 429 218 422T179 397T168 349V0H78V700Z" />
<glyph unicode="i" glyph-name="i" horiz-adv-x="246" d="M78 659H168V565H78V659ZM78 484H168V0H78V484Z" />
<glyph unicode="j" glyph-name="j" horiz-adv-x="247" d="M79 659H169V565H79V659ZM-20 -220T-43 -216V-157Q-22 -161 -5 -161Q39 -161 59 -144T79 -80V484H169V-73Q169 -154 131 -187T8 -220Q-20 -220 -43 -216Z" />
<glyph unicode="k" glyph-name="k" horiz-adv-x="514" d="M78 700H168V0H78V700ZM179 265L383 484H493L283 265L512 0H400L179 265Z" />
<glyph unicode="l" glyph-name="l" horiz-adv-x="246" d="M78 700H168V0H78V700Z" />
<glyph unicode="m" glyph-name="m" horiz-adv-x="890" d="M78 484H168V425Q182 494 331 494Q452 494 482 428Q491 460 536 477T648 494Q738 494 775 461T812 355V0H722V349Q722 368 719 380T707 404Q687 429 618 429Q565 429 539 422T504 398T494 349V0H404V349Q404
368 401 380T389 404Q369 429 301 429Q246 429 218 422T179 399T168 349V0H78V484Z" />
<glyph unicode="n" glyph-name="n" horiz-adv-x="573" d="M78 484H168V425Q182 494 327 494Q420 494 457 461T495 355V0H405V350Q405 369 402 381T390 405Q370 430 301 430Q248 430 220 423T180 398T168 350V0H78V484Z" />
<glyph unicode="o" glyph-name="o" horiz-adv-x="568" d="M219 -10T187 -6T123 14Q90 29 75 62T60 153V321Q60 366 71 400T100 453Q115 470 145 479T208 492Q244 494 283 494Q335 494 361 492T418 481Q449 472 466 454T495 402Q506 367 506 321V153Q506 68 467
29Q451 13 421 4T359 -8Q321 -10 283 -10Q219 -10 187 -6ZM325 49T344 51T381 62Q399 70 406 88T414 140V336Q414 381 403 401T366 428T283 435Q227 435 201 429T163 402T152 336V140Q152 107 159 89T185 62Q203 53 222 51T283 49Q325 49 344 51Z" />
<glyph unicode="p" glyph-name="p" horiz-adv-x="579" d="M78 484H167V432H168Q179 494 333 494Q425 494 472 456T519 357V158Q519 115 507 83T474 33Q456 16 425 6T362 -7Q334 -10 294 -10Q250 -10 214 0T168 31V-208H78V484ZM348 51T375 58T415 86T427 147V325Q427
370 415 392T376 421T295 429Q242 429 216 422T179 393T168 325V147Q168 106 179 86T218 59T296 51Q348 51 375 58Z" />
<glyph unicode="q" glyph-name="q" horiz-adv-x="579" d="M429 31Q409 -10 283 -10Q237 -10 210 -7T157 5Q130 15 114 33T88 82Q78 112 78 158V337Q78 421 130 457T305 494Q421 494 470 458T519 337V-208H429V31ZM354 52T380 59T418 87T429 148V325Q429 371 418
392T381 421T302 429Q240 429 214 422T179 394T170 325V148Q170 107 182 87T221 60T301 52Q354 52 380 59Z" />
<glyph unicode="r" glyph-name="r" horiz-adv-x="351" d="M78 484H163V405Q163 428 183 448T234 481T295 494H339V417H289Q225 417 197 401T168 341V0H78V484Z" />
<glyph unicode="s" glyph-name="s" horiz-adv-x="483" d="M149 -10T60 2V71Q177 52 228 52Q292 52 320 64T348 111V160Q348 191 327 204T259 217H204Q129 217 90 248T50 335V380Q50 494 266 494Q282 494 413 486V421Q324 435 262 435Q191 435 165 421Q139 407
139 374V333Q139 284 228 284H284Q437 284 437 170V128Q437 53 385 22T226 -10Q149 -10 60 2Z" />
<glyph unicode="t" glyph-name="t" horiz-adv-x="402" d="M219 -10T184 3T134 49T118 141V425H10V484H118V634H209V484H382V425H209V136Q209 100 217 82T247 57T310 49Q323 49 382 57V-2Q331 -10 281 -10Q219 -10 184 3Z" />
<glyph unicode="u" glyph-name="u" horiz-adv-x="573" d="M153 -10T116 23T78 129V484H168V134Q168 115 171 104T184 80Q202 54 272 54Q346 54 376 68Q405 82 405 119V484H495V0H405V59Q392 -10 246 -10Q153 -10 116 23Z" />
<glyph unicode="v" glyph-name="v" horiz-adv-x="463" d="M6 484H101L235 78H240L370 484H457L288 0H180L6 484Z" />
<glyph unicode="w" glyph-name="w" horiz-adv-x="792" d="M12 484H111L229 86H235L349 484H450L568 86H574L688 484H780L621 0H514L397 391L282 0H175L12 484Z" />
<glyph unicode="x" glyph-name="x" horiz-adv-x="479" d="M190 249L20 484H119L239 307L360 484H459L289 249L469 0H370L239 191L109 0H10L190 249Z" />
<glyph unicode="y" glyph-name="y" horiz-adv-x="460" d="M193 -7L6 484H104L239 89H241L363 484H454L211 -208H117L193 -7Z" />
<glyph unicode="z" glyph-name="z" horiz-adv-x="454" d="M40 61L312 423H50V484H414V423L142 61H420V0H40V61Z" />
<glyph unicode="{" glyph-name="braceleft" horiz-adv-x="330" d="M249 -190T236 -190T208 -186Q191 -183 182 -178T159 -161Q148 -150 142 -135T131 -94Q126 -67 126 -38V192Q126 233 123 248T107 268T64 273V325Q95 325 107 330T122 350T126 406V584Q126 641
141 680Q151 705 181 724Q189 729 205 732T236 736H267H286V688H276Q250 688 233 671T215 623V441Q215 379 198 348T136 301V297Q181 282 198 251T215 157V-77Q215 -107 232 -124T276 -142H286V-190H267Q249 -190 236 -190Z" />
<glyph unicode="|" glyph-name="bar" horiz-adv-x="335" d="M140 659H195V-10H140V659Z" />
<glyph unicode="}" glyph-name="braceright" horiz-adv-x="330" d="M44 -142H54Q80 -142 97 -125T115 -77V157Q115 220 132 251T194 297V301Q149 316 132 347T115 441V623Q115 653 98 670T54 688H44V736H63Q81 736 94 736T123 732Q140 729 149 724T171 707Q182
696 188 681T200 640Q204 619 204 584V406Q204 365 207 350T223 330T266 325V273Q235 273 223 268T208 248T204 192V-38Q204 -95 189 -134Q179 -160 150 -177Q141 -182 124 -185T95 -189Q88 -190 63 -190H44V-142Z" />
<glyph unicode="~" glyph-name="asciitilde" horiz-adv-x="580" d="M68 316Q106 361 190 361Q227 361 299 332Q370 302 393 302Q474 302 512 364V283Q476 237 389 237Q358 237 287 267Q215 296 186 296Q144 296 117 282T68 235V316Z" />
<glyph unicode="&#xa0;" glyph-name="uni00A0" horiz-adv-x="230" />
<glyph unicode="&#xa1;" glyph-name="exclamdown" horiz-adv-x="280" d="M82 484H198V376H82V484ZM115 305H165L200 -165H80L115 305Z" />
<glyph unicode="&#xa2;" glyph-name="cent" horiz-adv-x="580" d="M295 73Q250 73 221 79T166 100Q111 130 111 231V409Q111 514 165 546Q192 562 220 568T295 576V659H352V576Q413 573 472 562V496Q384 516 323 516Q270 516 246 509T212 483T203 422V222Q203
185 213 167T250 143T333 136Q406 136 479 155V87Q427 74 352 73V-10H295V73Z" />
<glyph unicode="&#xa3;" glyph-name="sterling" horiz-adv-x="580" d="M76 65H187V317H76V379H187V471Q187 531 199 568T238 626Q264 645 297 652T387 659Q441 659 488 654V594Q450 599 420 599H411Q353 599 326 590T288 556T277 477V379H448V317H277V65H536V0H76V65Z" />
<glyph unicode="&#xa4;" glyph-name="currency" horiz-adv-x="580" d="M207 89T130 148L76 94L50 120L104 174Q42 251 42 337Q42 423 104 500L50 554L76 580L130 526Q207 585 288 585Q378 585 451 528L505 582L531 556L477 502Q539 425 539 339Q539 253 477 176L531
122L505 96L451 150Q374 89 288 89Q207 89 130 148ZM348 129T396 157T471 234T499 339Q499 394 471 441T396 517T293 545Q235 545 187 518T110 443T82 337Q82 280 110 233T186 157T292 129Q348 129 396 157Z" />
<glyph unicode="&#xa5;" glyph-name="yen" horiz-adv-x="580" d="M243 113H71V184H243V262L235 275H71V346H192L8 649H119L291 346H293L465 649H576L390 346H509V275H346L340 265V184H509V113H340V0H243V113Z" />
<glyph unicode="&#xa6;" glyph-name="brokenbar" horiz-adv-x="265" d="M105 649H160V298H105V649ZM105 161H160V-190H105V161Z" />
<glyph unicode="&#xa7;" glyph-name="section" horiz-adv-x="580" d="M186 -115T96 -103V-34Q190 -51 274 -51Q341 -51 373 -39T405 8V55Q405 86 384 99T316 112H229Q152 112 109 143T66 230V305Q66 363 132 390Q86 415 86 470V525Q86 639 312 639Q401 639 469
626V562Q393 578 308 578Q236 578 205 564Q175 549 175 517V478Q175 429 265 429H360Q514 429 514 315V253Q514 216 496 190T448 154Q494 123 494 74V23Q494 -52 438 -83T272 -115Q186 -115 96 -103ZM342 179Q385 179 405 192T425 238V305Q425 362 326 362H241Q194
362 175 350T155 307V228Q155 179 265 179H342Z" />
<glyph unicode="&#xa8;" glyph-name="dieresis" horiz-adv-x="460" d="M100 659H190V565H100V659ZM270 659H360V565H270V659Z" />
<glyph unicode="&#xa9;" glyph-name="copyright" horiz-adv-x="717" d="M326 -10T289 -6T211 9Q164 21 133 39T82 90Q60 122 60 166V473Q60 529 91 569T176 627Q227 644 273 651T372 659Q417 659 453 655T530 640Q576 627 606 608T656 555Q677 521 677 474V166Q677
114 648 77T567 22Q519 5 472 -2T372 -10Q326 -10 289 -6ZM444 52T513 71Q552 82 575 106T598 164V481Q598 516 577 542T518 580Q449 601 373 601Q294 601 223 580Q183 568 161 542T138 481V164Q138 132 161 109T224 73Q292 52 374 52Q444 52 513 71ZM311 142T277
153T228 190T213 263V399Q213 461 251 490T372 520Q454 520 487 494T521 409V382H448V401Q448 429 442 441T420 459T369 464Q336 464 320 458T298 437T291 391V271Q291 239 297 224T319 204T369 198Q407 198 423 202T443 218T448 261V281H521V253Q521 194 489 168T372
142Q311 142 277 153Z" />
<glyph unicode="&#xaa;" glyph-name="ordfeminine" horiz-adv-x="318" d="M81 371T58 389T35 460Q35 508 57 526T142 544H216V582Q216 601 204 608T158 616Q108 616 56 610V655Q124 660 165 660Q216 660 240 653T274 627T283 570V376H218V403Q198 371 143 371Q81
371 58 389ZM152 411Q216 411 216 433V505H145Q118 505 111 497T103 458Q103 431 110 421T141 411H152ZM35 329H283V273H35V329Z" />
<glyph unicode="&#xab;" glyph-name="guillemotleft" horiz-adv-x="426" d="M40 262L140 454H216L124 262L216 70H140L40 262ZM210 262L310 454H386L294 262L386 70H310L210 262Z" />
<glyph unicode="&#xac;" glyph-name="logicalnot" horiz-adv-x="500" d="M373 282H60V349H440V115H373V282Z" />
<glyph unicode="&#xad;" glyph-name="uni00AD" horiz-adv-x="358" d="M40 322H318V250H40V322Z" />
<glyph unicode="&#xae;" glyph-name="registered" horiz-adv-x="717" d="M326 -10T289 -6T211 9Q164 21 133 39T82 90Q60 122 60 166V473Q60 529 91 569T176 627Q227 644 273 651T372 659Q417 659 453 655T530 640Q576 627 606 608T656 555Q677 521 677 474V166Q677
114 648 77T567 22Q519 5 472 -2T372 -10Q326 -10 289 -6ZM444 52T513 71Q552 82 575 106T598 164V481Q598 516 577 542T518 580Q449 601 373 601Q294 601 223 580Q183 568 161 542T138 481V164Q138 132 161 109T224 73Q292 52 374 52Q444 52 513 71ZM241 519H378Q431
519 460 513T502 490T515 443V368Q515 332 490 313T424 293L539 130H457L356 286H309V130H241V519ZM376 334Q407 334 421 336T440 347T446 373V437Q446 458 433 464T381 471H309V334H376Z" />
<glyph unicode="&#xaf;" glyph-name="overscore" horiz-adv-x="418" d="M100 649H318V590H100V649Z" />
<glyph unicode="&#xb0;" glyph-name="degree" horiz-adv-x="407" d="M170 373T154 374T119 381Q99 386 88 396T68 425Q60 444 60 470V549Q60 614 94 636T204 659Q280 659 313 637T347 549V470Q347 419 321 396Q310 387 290 381T251 374Q239 373 204 373Q170 373
154 374ZM235 421T247 423T268 436Q277 447 277 470V557Q277 581 271 592T249 607T204 611Q160 611 145 602T130 557V470Q130 429 163 423Q181 421 204 421Q235 421 247 423Z" />
<glyph unicode="&#xb1;" glyph-name="plusminus" horiz-adv-x="500" d="M216 282H60V349H216V515H283V349H440V282H283V115H216V282ZM60 67H440V0H60V67Z" />
<glyph unicode="&#xb2;" glyph-name="uni00B2" horiz-adv-x="378" d="M41 354Q41 387 62 411T119 448Q140 456 184 470Q262 492 262 527V571Q262 603 169 603Q120 603 52 590V647Q123 658 179 658Q264 658 300 640T336 576V516Q336 483 304 458T224 420Q111 390
111 360V331H338V273H41V354Z" />
<glyph unicode="&#xb3;" glyph-name="uni00B3" horiz-adv-x="378" d="M125 271T47 279V339Q120 325 189 325Q275 325 275 365V408Q275 430 255 439Q234 448 189 448H112V497H189Q227 497 245 504Q263 510 263 529V569Q263 590 244 597Q226 604 180 604Q140 604
61 598V654Q139 659 189 659Q337 659 337 586V527Q337 488 283 476L284 475Q350 462 350 411V358Q350 311 312 291T189 271Q125 271 47 279Z" />
<glyph unicode="&#xb4;" glyph-name="acute" horiz-adv-x="399" d="M190 680H299L174 553H100L190 680Z" />
<glyph unicode="&#xb5;" glyph-name="uni00B5" horiz-adv-x="573" d="M78 484H168V134Q168 115 171 104T184 80Q202 54 272 54Q346 54 376 68Q405 82 405 119V484H495V0H407V59Q391 -10 246 -10Q205 -10 168 -2V-209H78V484Z" />
<glyph unicode="&#xb6;" glyph-name="paragraph" horiz-adv-x="573" d="M199 352Q130 352 97 363T52 405T40 501Q40 560 49 591T82 636T147 649H499V633L476 616Q455 600 455 579V-186H402V606H252V-186H199V352Z" />
<glyph unicode="&#xb7;" glyph-name="middot" horiz-adv-x="256" d="M70 388H186V280H70V388Z" />
<glyph unicode="&#xb8;" glyph-name="cedilla" horiz-adv-x="394" d="M131 -220T100 -201L121 -156Q152 -173 179 -173Q226 -173 226 -133Q226 -114 204 -103T148 -92H115Q142 -45 164 0H227L201 -52Q240 -53 267 -73T294 -130Q294 -172 262 -196T181 -220Q131
-220 100 -201Z" />
<glyph unicode="&#xb9;" glyph-name="uni00B9" horiz-adv-x="378" d="M186 571L75 500V568L195 649H257V273H186V571Z" />
<glyph unicode="&#xba;" glyph-name="ordmasculine" horiz-adv-x="336" d="M135 371T120 372T87 379Q68 384 58 393T41 421Q34 438 34 465V558Q34 594 43 615T73 646Q93 655 112 657T168 660Q205 660 224 658T264 646Q284 636 293 615T302 558V465Q302 432 293
413T264 385Q244 376 225 374T168 371Q135 371 120 372ZM207 412T219 420T232 458V567Q232 590 227 601T208 615T168 619Q140 619 127 616T108 602T102 567V458Q102 428 115 420T168 412Q207 412 219 420ZM35 329H302V273H35V329Z" />
<glyph unicode="&#xbb;" glyph-name="guillemotright" horiz-adv-x="426" d="M132 262L40 454H116L216 262L116 70H40L132 262ZM302 262L210 454H286L386 262L286 70H210L302 262Z" />
<glyph unicode="&#xbc;" glyph-name="onequarter" horiz-adv-x="956" d="M258 571L147 500V568L267 649H329V273H258V571ZM644 649H725L313 0H232L644 649ZM788 85H568V135L777 376H860V136H908V85H860V0H788V85ZM788 136L787 305L642 136H788Z" />
<glyph unicode="&#xbd;" glyph-name="onehalf" horiz-adv-x="956" d="M258 571L147 500V568L267 649H329V273H258V571ZM644 649H725L313 0H232L644 649ZM595 81Q595 114 616 138T674 175Q688 180 738 197Q816 219 816 254V298Q816 330 723 330Q674 330 606 317V374Q677
385 733 385Q818 385 854 367T890 303V243Q890 210 858 185T778 147Q665 117 665 87V58H892V0H595V81Z" />
<glyph unicode="&#xbe;" glyph-name="threequarters" horiz-adv-x="956" d="M125 271T47 279V339Q120 325 189 325Q275 325 275 365V408Q275 430 255 439Q234 448 189 448H112V497H189Q227 497 245 504Q263 510 263 529V569Q263 590 244 597Q226 604 180 604Q140
604 61 598V654Q139 659 189 659Q337 659 337 586V527Q337 488 283 476L284 475Q350 462 350 411V358Q350 311 312 291T189 271Q125 271 47 279ZM644 649H725L313 0H232L644 649ZM788 85H568V135L777 376H860V136H908V85H860V0H788V85ZM788 136L787 305L642 136H788Z"
/>
<glyph unicode="&#xbf;" glyph-name="questiondown" horiz-adv-x="533" d="M232 484H348V376H232V484ZM155 -175T108 -143T60 -34V16Q60 59 78 92T125 147Q152 166 179 183Q244 223 244 270V313H334V289Q334 238 317 201T271 143Q259 134 219 108Q156 68 156 3V-27Q156
-72 184 -88T282 -104Q352 -104 473 -83V-156Q371 -175 263 -175Q155 -175 108 -143Z" />
<glyph unicode="&#xc0;" glyph-name="Agrave" horiz-adv-x="652" d="M273 649H385L637 0H536L462 197H184L111 0H15L273 649ZM438 264L328 557H319L209 264H438ZM162 839H271L361 712H287L162 839Z" />
<glyph unicode="&#xc1;" glyph-name="Aacute" horiz-adv-x="652" d="M273 649H385L637 0H536L462 197H184L111 0H15L273 649ZM438 264L328 557H319L209 264H438ZM366 842H475L350 715H276L366 842Z" />
<glyph unicode="&#xc2;" glyph-name="Acircumflex" horiz-adv-x="652" d="M273 649H385L637 0H536L462 197H184L111 0H15L273 649ZM438 264L328 557H319L209 264H438ZM273 832H380L446 705H388L326 792L263 705H205L273 832Z" />
<glyph unicode="&#xc3;" glyph-name="Atilde" horiz-adv-x="652" d="M273 649H385L637 0H536L462 197H184L111 0H15L273 649ZM438 264L328 557H319L209 264H438ZM168 765T196 786T267 808Q287 808 310 802T337 794Q370 783 384 783Q417 783 417 816L482 815Q481
762 456 741T384 719Q375 719 361 723T331 733Q314 738 297 743T267 748Q232 748 231 719H167Q168 765 196 786Z" />
<glyph unicode="&#xc4;" glyph-name="Adieresis" horiz-adv-x="652" d="M190 809H280V715H190V809ZM360 809H450V715H360V809ZM273 649H385L637 0H536L462 197H184L111 0H15L273 649ZM438 264L328 557H319L209 264H438Z" />
<glyph unicode="&#xc5;" glyph-name="Aring" horiz-adv-x="652" d="M242 560Q185 577 185 646V659Q185 712 211 738Q221 748 241 754T280 761Q291 762 326 762Q360 762 375 761T410 755Q430 749 441 739T460 708Q467 690 467 659V646Q467 582 415 561L637 0H536L462
198H185L111 0H15L242 560ZM356 596T368 598T390 611Q400 621 400 643V657Q400 689 385 699T326 709Q283 709 268 699T252 657V643Q252 614 268 605T326 596Q356 596 368 598ZM438 264L332 545H315L209 264H438Z" />
<glyph unicode="&#xc6;" glyph-name="AE" horiz-adv-x="923" d="M358 649H863V581H554V369H830V301H554V68H873V0H457V197H211L109 0H0L358 649ZM457 264V581H409L245 264H457Z" />
<glyph unicode="&#xc7;" glyph-name="Ccedilla" horiz-adv-x="564" d="M268 -220T237 -201L258 -156Q289 -173 316 -173Q363 -173 363 -133Q363 -114 341 -103T285 -92H252Q273 -57 297 -9Q64 5 64 166V474Q64 660 337 660Q430 660 515 641V569Q419 593 339 593Q300
593 271 589T215 573Q157 548 157 475V171Q157 59 343 59Q423 59 519 83V9Q436 -9 359 -10L338 -52Q377 -53 404 -73T431 -130Q431 -172 399 -196T318 -220Q268 -220 237 -201Z" />
<glyph unicode="&#xc8;" glyph-name="Egrave" horiz-adv-x="580" d="M84 649H520V581H181V369H487V301H181V68H530V0H84V649ZM126 839H235L325 712H251L126 839Z" />
<glyph unicode="&#xc9;" glyph-name="Eacute" horiz-adv-x="580" d="M84 649H520V581H181V369H487V301H181V68H530V0H84V649ZM330 842H439L314 715H240L330 842Z" />
<glyph unicode="&#xca;" glyph-name="Ecircumflex" horiz-adv-x="580" d="M84 649H520V581H181V369H487V301H181V68H530V0H84V649ZM237 832H344L410 705H352L290 792L227 705H169L237 832Z" />
<glyph unicode="&#xcb;" glyph-name="Edieresis" horiz-adv-x="580" d="M176 809H266V715H176V809ZM346 809H436V715H346V809ZM84 649H520V581H181V369H487V301H181V68H530V0H84V649Z" />
<glyph unicode="&#xcc;" glyph-name="Igrave" horiz-adv-x="265" d="M84 649H181V0H84V649ZM-31 839H78L168 712H94L-31 839Z" />
<glyph unicode="&#xcd;" glyph-name="Iacute" horiz-adv-x="265" d="M84 649H181V0H84V649ZM173 842H282L157 715H83L173 842Z" />
<glyph unicode="&#xce;" glyph-name="Icircumflex" horiz-adv-x="265" d="M79 830H186L252 703H194L132 790L69 703H11L79 830ZM84 649H181V0H84V649Z" />
<glyph unicode="&#xcf;" glyph-name="Idieresis" horiz-adv-x="265" d="M4 809H94V715H4V809ZM174 809H264V715H174V809ZM84 649H181V0H84V649Z" />
<glyph unicode="&#xd0;" glyph-name="Eth" horiz-adv-x="679" d="M84 301H20V369H84V649H342Q615 649 615 463V176Q615 0 343 0H84V301ZM336 66Q522 66 522 178V464Q522 500 507 525T465 562Q438 573 409 577T341 582H181V369H287V301H181V66H336Z" />
<glyph unicode="&#xd1;" glyph-name="Ntilde" horiz-adv-x="723" d="M234 764Q258 793 299 793Q322 793 364 776Q406 759 424 759Q445 759 459 769T489 802V733Q467 694 424 694Q398 694 358 712Q317 730 299 730Q260 730 234 691V764ZM84 649H201L554 113V649H639V0H522L169
545V0H84V649Z" />
<glyph unicode="&#xd2;" glyph-name="Ograve" horiz-adv-x="679" d="M66 -10T66 166V473Q66 659 338 659Q613 659 613 474V166Q613 72 537 31T338 -10Q66 -10 66 166ZM519 55T519 167V476Q519 596 339 596Q252 596 206 569T159 476V167Q159 55 340 55Q519 55 519
167ZM176 839H285L375 712H301L176 839Z" />
<glyph unicode="&#xd3;" glyph-name="Oacute" horiz-adv-x="679" d="M66 -10T66 166V473Q66 659 338 659Q613 659 613 474V166Q613 72 537 31T338 -10Q66 -10 66 166ZM519 55T519 167V476Q519 596 339 596Q252 596 206 569T159 476V167Q159 55 340 55Q519 55 519
167ZM380 842H489L364 715H290L380 842Z" />
<glyph unicode="&#xd4;" glyph-name="Ocircumflex" horiz-adv-x="679" d="M66 -10T66 166V473Q66 659 338 659Q613 659 613 474V166Q613 72 537 31T338 -10Q66 -10 66 166ZM519 55T519 167V476Q519 596 339 596Q252 596 206 569T159 476V167Q159 55 340 55Q519
55 519 167ZM287 832H394L460 705H402L340 792L277 705H219L287 832Z" />
<glyph unicode="&#xd5;" glyph-name="Otilde" horiz-adv-x="679" d="M66 -10T66 166V473Q66 659 338 659Q613 659 613 474V166Q613 72 537 31T338 -10Q66 -10 66 166ZM519 55T519 167V476Q519 596 339 596Q252 596 206 569T159 476V167Q159 55 340 55Q519 55 519
167ZM182 765T210 786T281 808Q301 808 324 802T351 794Q384 783 398 783Q431 783 431 816L496 815Q495 762 470 741T398 719Q389 719 375 723T345 733Q328 738 311 743T281 748Q246 748 245 719H181Q182 765 210 786Z" />
<glyph unicode="&#xd6;" glyph-name="Odieresis" horiz-adv-x="679" d="M200 809H290V715H200V809ZM370 809H460V715H370V809ZM66 -10T66 166V473Q66 659 338 659Q613 659 613 474V166Q613 114 588 77T518 22Q475 5 433 -2T338 -10Q66 -10 66 166ZM519 55T519
167V476Q519 596 339 596Q299 596 271 592T216 575Q159 548 159 476V167Q159 55 340 55Q519 55 519 167Z" />
<glyph unicode="&#xd7;" glyph-name="multiply" horiz-adv-x="500" d="M249 267L118 136L70 183L202 315L70 447L118 494L249 362L382 495L429 447L297 315L429 183L382 135L249 267Z" />
<glyph unicode="&#xd8;" glyph-name="Oslash" horiz-adv-x="679" d="M66 -10T66 166V473Q66 659 338 659Q613 659 613 474V166Q613 114 588 77T518 22Q475 5 433 -2T338 -10Q66 -10 66 166ZM475 566Q432 596 339 596Q299 596 271 592T216 575Q159 548 159 476V167Q159
150 161 140L475 566ZM519 55T519 167V476Q519 492 516 507L203 83Q246 55 340 55Q519 55 519 167Z" />
<glyph unicode="&#xd9;" glyph-name="Ugrave" horiz-adv-x="676" d="M284 -10T245 -3T167 21Q127 39 106 76T84 166V649H177V167Q177 106 218 81T339 55Q419 55 458 80T498 167V649H591V166Q591 -10 337 -10Q284 -10 245 -3ZM174 839H283L373 712H299L174 839Z" />
<glyph unicode="&#xda;" glyph-name="Uacute" horiz-adv-x="676" d="M284 -10T245 -3T167 21Q127 39 106 76T84 166V649H177V167Q177 106 218 81T339 55Q419 55 458 80T498 167V649H591V166Q591 -10 337 -10Q284 -10 245 -3ZM378 842H487L362 715H288L378 842Z" />
<glyph unicode="&#xdb;" glyph-name="Ucircumflex" horiz-adv-x="676" d="M279 830H386L452 703H394L332 790L269 703H211L279 830ZM284 -10T245 -3T167 21Q127 39 106 76T84 166V649H177V167Q177 106 218 81T339 55Q419 55 458 80T498 167V649H591V166Q591 -10
337 -10Q284 -10 245 -3Z" />
<glyph unicode="&#xdc;" glyph-name="Udieresis" horiz-adv-x="676" d="M201 809H291V715H201V809ZM371 809H461V715H371V809ZM284 -10T245 -3T167 21Q127 39 106 76T84 166V649H177V167Q177 106 218 81T339 55Q419 55 458 80T498 167V649H591V166Q591 -10 337
-10Q284 -10 245 -3Z" />
<glyph unicode="&#xdd;" glyph-name="Yacute" horiz-adv-x="584" d="M243 262L8 649H119L292 344L465 649H576L340 265V0H243V262ZM332 842H441L316 715H242L332 842Z" />
<glyph unicode="&#xde;" glyph-name="Thorn" horiz-adv-x="570" d="M84 649H181V534H296Q341 534 368 532T427 523Q459 516 478 502T512 464Q525 441 525 406V271Q525 190 463 155T278 119H181V0H84V649ZM291 180Q354 180 392 203T430 276V394Q430 421 416 438T376
463Q351 469 334 471T289 473H181V180H291Z" />
<glyph unicode="&#xdf;" glyph-name="germandbls" horiz-adv-x="602" d="M78 474Q78 547 98 586T167 642T305 659Q388 659 437 642Q482 626 497 602T513 536V439Q513 399 492 378T427 347V343Q480 334 511 307T542 238V129Q542 58 489 29T312 0H252V64H317Q390
64 420 79Q450 94 450 130V231Q450 257 440 272T407 295Q385 301 368 302T317 304H252V365H313Q374 365 400 383T427 442V528Q427 564 398 579T305 595Q246 595 219 588T181 560T170 494V0H78V474Z" />
<glyph unicode="&#xe0;" glyph-name="agrave" horiz-adv-x="538" d="M158 -10T121 3T67 49T50 144Q50 199 65 229T118 273T225 286H370V363Q370 390 360 404T325 425T253 431Q178 431 87 419V485Q186 494 266 494Q350 494 390 482T445 438T460 342V0H373V46Q362
-10 227 -10Q158 -10 121 3ZM242 49Q291 49 325 56Q370 65 370 98V230H231Q188 230 169 224T144 199T138 141Q138 105 145 86T170 58T224 49H242ZM103 680H212L302 553H228L103 680Z" />
<glyph unicode="&#xe1;" glyph-name="aacute" horiz-adv-x="538" d="M158 -10T121 3T67 49T50 144Q50 199 65 229T118 273T225 286H370V363Q370 390 360 404T325 425T253 431Q178 431 87 419V485Q186 494 266 494Q350 494 390 482T445 438T460 342V0H373V46Q362
-10 227 -10Q158 -10 121 3ZM242 49Q291 49 325 56Q370 65 370 98V230H231Q188 230 169 224T144 199T138 141Q138 105 145 86T170 58T224 49H242ZM309 680H418L293 553H219L309 680Z" />
<glyph unicode="&#xe2;" glyph-name="acircumflex" horiz-adv-x="538" d="M158 -10T121 3T67 49T50 144Q50 199 65 229T118 273T225 286H370V363Q370 390 360 404T325 425T253 431Q178 431 87 419V485Q186 494 266 494Q350 494 390 482T445 438T460 342V0H373V46Q362
-10 227 -10Q158 -10 121 3ZM242 49Q291 49 325 56Q370 65 370 98V230H231Q188 230 169 224T144 199T138 141Q138 105 145 86T170 58T224 49H242ZM216 680H323L389 553H331L269 640L206 553H148L216 680Z" />
<glyph unicode="&#xe3;" glyph-name="atilde" horiz-adv-x="538" d="M158 -10T121 3T67 49T50 144Q50 199 65 229T118 273T225 286H370V363Q370 390 360 404T325 425T253 431Q178 431 87 419V485Q186 494 266 494Q350 494 390 482T445 438T460 342V0H373V46Q362
-10 227 -10Q158 -10 121 3ZM242 49Q291 49 325 56Q370 65 370 98V230H231Q188 230 169 224T144 199T138 141Q138 105 145 86T170 58T224 49H242ZM132 576Q139 603 160 623T214 644Q237 644 276 629Q313 614 330 614Q345 614 358 622T377 646L408 628Q400 600 377
578T321 556Q298 556 256 573Q217 589 205 589Q176 589 163 556L132 576Z" />
<glyph unicode="&#xe4;" glyph-name="adieresis" horiz-adv-x="538" d="M130 659H220V565H130V659ZM300 659H390V565H300V659ZM158 -10T121 3T67 49T50 144Q50 199 65 229T118 273T225 286H370V363Q370 390 360 404T325 425T253 431Q178 431 87 419V485Q186 494
266 494Q350 494 390 482T445 438T460 342V0H373V46Q362 -10 227 -10Q158 -10 121 3ZM242 49Q291 49 325 56Q370 65 370 98V230H231Q188 230 169 224T144 199T138 141Q138 105 145 86T170 58T224 49H242Z" />
<glyph unicode="&#xe5;" glyph-name="aring" horiz-adv-x="538" d="M231 553T212 555T173 567Q153 576 144 596T135 651V663Q135 700 144 721T173 753Q193 762 212 764T268 767Q298 767 314 766T349 759Q368 753 378 743T395 712Q402 694 402 663V651Q402 616
394 596T365 567Q345 558 326 556T268 553Q231 553 212 555ZM298 595T312 598T333 611T339 644V671Q339 695 333 706T313 721T268 725Q238 725 224 722T204 707T198 671V644Q198 622 204 612T224 598T268 595Q298 595 312 598ZM158 -10T121 3T67 49T50 144Q50 199
65 229T118 273T225 286H370V363Q370 390 360 404T325 425T253 431Q178 431 87 419V485Q186 494 266 494Q350 494 390 482T445 438T460 342V0H373V46Q362 -10 227 -10Q158 -10 121 3ZM242 49Q291 49 325 56Q370 65 370 98V230H231Q188 230 169 224T144 199T138
141Q138 105 145 86T170 58T224 49H242Z" />
<glyph unicode="&#xe6;" glyph-name="ae" horiz-adv-x="840" d="M158 -10T120 2T66 46T50 140Q50 198 65 229T117 273T225 286H375V361Q375 399 350 415T261 431Q153 431 87 414V480Q165 494 273 494Q391 494 431 459Q481 494 584 494Q690 494 735 458T781 329V222H466V149Q466
99 499 77T604 55Q668 55 762 79V10Q668 -10 589 -10Q462 -10 408 47Q395 -10 230 -10Q158 -10 120 2ZM691 281V357Q691 402 667 418T580 434Q519 434 493 418T466 357V281H691ZM258 47T276 48T314 52Q335 55 346 61T367 79Q375 92 375 109V230H231Q188 230 169
224T144 199T138 141Q138 102 145 83T172 56T234 47Q258 47 276 48Z" />
<glyph unicode="&#xe7;" glyph-name="ccedilla" horiz-adv-x="464" d="M213 -220T182 -201L203 -156Q234 -173 261 -173Q308 -173 308 -133Q308 -114 286 -103T230 -92H197Q221 -51 241 -10Q204 -9 181 -6T134 7Q109 16 94 32T70 78Q60 105 60 148V326Q60 407
91 442Q108 462 125 472T171 487Q199 491 221 492T283 494Q352 494 421 479V413Q341 433 272 433Q218 433 194 427T161 401T152 339V139Q152 102 162 85T200 60T282 53Q355 53 428 72V4Q363 -8 304 -9L283 -52Q322 -53 349 -73T376 -130Q376 -172 344 -196T263
-220Q213 -220 182 -201Z" />
<glyph unicode="&#xe8;" glyph-name="egrave" horiz-adv-x="535" d="M60 -10T60 138V329Q60 417 110 455T274 494Q381 494 428 457T476 329V222H151V149Q151 99 186 77T294 55Q363 55 457 79V10Q365 -10 282 -10Q60 -10 60 138ZM386 281V357Q386 401 360 417T269
434Q207 434 179 418T151 357V281H386ZM102 680H211L301 553H227L102 680Z" />
<glyph unicode="&#xe9;" glyph-name="eacute" horiz-adv-x="535" d="M60 -10T60 138V329Q60 417 110 455T274 494Q381 494 428 457T476 329V222H151V149Q151 99 186 77T294 55Q363 55 457 79V10Q365 -10 282 -10Q60 -10 60 138ZM386 281V357Q386 401 360 417T269
434Q207 434 179 418T151 357V281H386ZM308 680H417L292 553H218L308 680Z" />
<glyph unicode="&#xea;" glyph-name="ecircumflex" horiz-adv-x="535" d="M60 -10T60 138V329Q60 417 110 455T274 494Q381 494 428 457T476 329V222H151V149Q151 99 186 77T294 55Q363 55 457 79V10Q365 -10 282 -10Q60 -10 60 138ZM386 281V357Q386 401 360
417T269 434Q207 434 179 418T151 357V281H386ZM215 680H322L388 553H330L268 640L205 553H147L215 680Z" />
<glyph unicode="&#xeb;" glyph-name="edieresis" horiz-adv-x="535" d="M130 659H220V565H130V659ZM300 659H390V565H300V659ZM60 -10T60 138V329Q60 417 110 455T274 494Q381 494 428 457T476 329V222H151V149Q151 99 186 77T294 55Q363 55 457 79V10Q365 -10
282 -10Q60 -10 60 138ZM386 281V357Q386 401 360 417T269 434Q207 434 179 418T151 357V281H386Z" />
<glyph unicode="&#xec;" glyph-name="igrave" horiz-adv-x="246" d="M79 484H169V0H79V484ZM-43 680H66L156 553H82L-43 680Z" />
<glyph unicode="&#xed;" glyph-name="iacute" horiz-adv-x="246" d="M79 484H169V0H79V484ZM163 680H272L147 553H73L163 680Z" />
<glyph unicode="&#xee;" glyph-name="icircumflex" horiz-adv-x="246" d="M75 680H182L248 553H190L128 640L65 553H7L75 680ZM79 484H169V0H79V484Z" />
<glyph unicode="&#xef;" glyph-name="idieresis" horiz-adv-x="246" d="M-5 659H85V565H-5V659ZM165 659H255V565H165V659ZM79 484H169V0H79V484Z" />
<glyph unicode="&#xf0;" glyph-name="eth" horiz-adv-x="568" d="M227 -10T200 -8T143 3Q113 12 98 28T72 77Q62 106 62 153V321Q62 408 98 451Q113 468 142 478T205 491Q235 494 283 494Q344 494 376 490Q343 552 305 599L189 565V622L265 645Q254 658 212 700H318L349
670L450 700V643L389 625Q504 486 504 321V153Q504 69 469 29Q454 13 425 4T362 -8Q324 -10 283 -10Q227 -10 200 -8ZM337 48T363 54T402 80T414 140V336Q414 381 403 402T366 429T283 436Q227 436 201 430T163 402T152 336V140Q152 99 164 80T202 55T283 48Q337
48 363 54Z" />
<glyph unicode="&#xf1;" glyph-name="ntilde" horiz-adv-x="573" d="M150 614Q174 643 215 643Q238 643 280 626Q322 609 340 609Q361 609 375 619T405 652V583Q383 544 340 544Q315 544 274 562Q234 580 215 580Q176 580 150 541V614ZM78 484H168V425Q182 494
327 494Q420 494 457 461T495 355V0H405V350Q405 369 402 381T390 405Q370 430 301 430Q248 430 220 423T180 398T168 350V0H78V484Z" />
<glyph unicode="&#xf2;" glyph-name="ograve" horiz-adv-x="568" d="M219 -10T187 -6T123 14Q90 29 75 62T60 153V321Q60 366 71 400T100 453Q115 470 145 479T208 492Q244 494 283 494Q335 494 361 492T418 481Q449 472 466 454T495 402Q506 367 506 321V153Q506
68 467 29Q451 13 421 4T359 -8Q321 -10 283 -10Q219 -10 187 -6ZM325 49T344 51T381 62Q399 70 406 88T414 140V336Q414 381 403 401T366 428T283 435Q227 435 201 429T163 402T152 336V140Q152 107 159 89T185 62Q203 53 222 51T283 49Q325 49 344 51ZM118 680H227L317
553H243L118 680Z" />
<glyph unicode="&#xf3;" glyph-name="oacute" horiz-adv-x="568" d="M219 -10T187 -6T123 14Q90 29 75 62T60 153V321Q60 366 71 400T100 453Q115 470 145 479T208 492Q244 494 283 494Q335 494 361 492T418 481Q449 472 466 454T495 402Q506 367 506 321V153Q506
68 467 29Q451 13 421 4T359 -8Q321 -10 283 -10Q219 -10 187 -6ZM325 49T344 51T381 62Q399 70 406 88T414 140V336Q414 381 403 401T366 428T283 435Q227 435 201 429T163 402T152 336V140Q152 107 159 89T185 62Q203 53 222 51T283 49Q325 49 344 51ZM324 680H433L308
553H234L324 680Z" />
<glyph unicode="&#xf4;" glyph-name="ocircumflex" horiz-adv-x="568" d="M219 -10T187 -6T123 14Q90 29 75 62T60 153V321Q60 366 71 400T100 453Q115 470 145 479T208 492Q244 494 283 494Q335 494 361 492T418 481Q449 472 466 454T495 402Q506 367 506 321V153Q506
68 467 29Q451 13 421 4T359 -8Q321 -10 283 -10Q219 -10 187 -6ZM325 49T344 51T381 62Q399 70 406 88T414 140V336Q414 381 403 401T366 428T283 435Q227 435 201 429T163 402T152 336V140Q152 107 159 89T185 62Q203 53 222 51T283 49Q325 49 344 51ZM231 680H338L404
553H346L284 640L221 553H163L231 680Z" />
<glyph unicode="&#xf5;" glyph-name="otilde" horiz-adv-x="568" d="M219 -10T187 -6T123 14Q90 29 75 62T60 153V321Q60 366 71 400T100 453Q115 470 145 479T208 492Q244 494 283 494Q335 494 361 492T418 481Q449 472 466 454T495 402Q506 367 506 321V153Q506
68 467 29Q451 13 421 4T359 -8Q321 -10 283 -10Q219 -10 187 -6ZM325 49T344 51T381 62Q399 70 406 88T414 140V336Q414 381 403 401T366 428T283 435Q227 435 201 429T163 402T152 336V140Q152 107 159 89T185 62Q203 53 222 51T283 49Q325 49 344 51ZM147 576Q154
603 175 623T229 644Q252 644 291 629Q328 614 345 614Q360 614 373 622T392 646L423 628Q415 600 392 578T336 556Q313 556 271 573Q232 589 220 589Q191 589 178 556L147 576Z" />
<glyph unicode="&#xf6;" glyph-name="odieresis" horiz-adv-x="568" d="M154 659H244V565H154V659ZM324 659H414V565H324V659ZM219 -10T187 -6T123 14Q90 29 75 62T60 153V321Q60 366 71 400T100 453Q115 470 145 479T208 492Q244 494 283 494Q335 494 361 492T418
481Q449 472 466 454T495 402Q506 367 506 321V153Q506 68 467 29Q451 13 421 4T359 -8Q321 -10 283 -10Q219 -10 187 -6ZM325 49T344 51T381 62Q399 70 406 88T414 140V336Q414 381 403 401T366 428T283 435Q227 435 201 429T163 402T152 336V140Q152 107 159
89T185 62Q203 53 222 51T283 49Q325 49 344 51Z" />
<glyph unicode="&#xf7;" glyph-name="divide" horiz-adv-x="500" d="M192 555H308V447H192V555ZM60 349H440V282H60V349ZM192 179H308V71H192V179Z" />
<glyph unicode="&#xf8;" glyph-name="oslash" horiz-adv-x="568" d="M219 -10T187 -6T123 14Q90 29 75 62T60 153V321Q60 366 71 400T100 453Q115 470 145 479T208 492Q244 494 283 494Q335 494 361 492T418 481Q449 472 466 454T495 402Q506 367 506 321V153Q506
68 467 29Q451 13 421 4T359 -8Q321 -10 283 -10Q219 -10 187 -6ZM373 426Q349 435 283 435Q227 435 201 429T163 402T152 336V140Q152 107 159 92L373 426ZM325 49T344 51T381 62Q399 70 406 88T414 140V336Q414 368 407 389L194 57Q220 49 283 49Q325 49 344
51Z" />
<glyph unicode="&#xf9;" glyph-name="ugrave" horiz-adv-x="573" d="M153 -10T116 23T78 129V484H168V134Q168 115 171 104T184 80Q202 54 272 54Q346 54 376 68Q405 82 405 119V484H495V0H405V59Q392 -10 246 -10Q153 -10 116 23ZM121 680H230L320 553H246L121 680Z" />
<glyph unicode="&#xfa;" glyph-name="uacute" horiz-adv-x="573" d="M153 -10T116 23T78 129V484H168V134Q168 115 171 104T184 80Q202 54 272 54Q346 54 376 68Q405 82 405 119V484H495V0H405V59Q392 -10 246 -10Q153 -10 116 23ZM327 680H436L311 553H237L327 680Z" />
<glyph unicode="&#xfb;" glyph-name="ucircumflex" horiz-adv-x="573" d="M228 680H335L401 553H343L281 640L218 553H160L228 680ZM153 -10T116 23T78 129V484H168V134Q168 115 171 104T184 80Q202 54 272 54Q346 54 376 68Q405 82 405 119V484H495V0H405V59Q392
-10 246 -10Q153 -10 116 23Z" />
<glyph unicode="&#xfc;" glyph-name="udieresis" horiz-adv-x="573" d="M150 659H240V565H150V659ZM320 659H410V565H320V659ZM153 -10T116 23T78 129V484H168V134Q168 115 171 104T184 80Q202 54 272 54Q346 54 376 68Q405 82 405 119V484H495V0H405V59Q392 -10
246 -10Q153 -10 116 23Z" />
<glyph unicode="&#xfd;" glyph-name="yacute" horiz-adv-x="460" d="M193 -7L6 484H104L239 89H241L363 484H454L211 -208H117L193 -7ZM270 680H379L254 553H180L270 680Z" />
<glyph unicode="&#xfe;" glyph-name="thorn" horiz-adv-x="579" d="M78 700H168V432Q179 494 333 494Q425 494 472 456T519 357V158Q519 115 507 83T474 33Q456 16 425 6T362 -7Q334 -10 294 -10Q250 -10 214 0T168 31V-208H78V700ZM348 51T375 58T415 86T427
147V325Q427 370 415 392T376 421T295 429Q242 429 215 422T175 392T163 325V147Q163 107 175 87T216 59T296 51Q348 51 375 58Z" />
<glyph unicode="&#xff;" glyph-name="ydieresis" horiz-adv-x="460" d="M193 -7L6 484H104L239 89H241L363 484H454L211 -208H117L193 -7ZM100 659H190V565H100V659ZM270 659H360V565H270V659Z" />
<glyph unicode="&#x2013;" glyph-name="endash" horiz-adv-x="580" d="M71 325H509V254H71V325Z" />
<glyph unicode="&#x2014;" glyph-name="emdash" horiz-adv-x="818" d="M40 325H778V254H40V325Z" />
<glyph unicode="&#x2018;" glyph-name="quoteleft" horiz-adv-x="256" d="M139 649H197L151 429H45L139 649Z" />
<glyph unicode="&#x2019;" glyph-name="quoteright" horiz-adv-x="222" d="M80 649H177L102 509H44L80 649Z" />
<glyph unicode="&#x201a;" glyph-name="quotesinglbase" horiz-adv-x="256" d="M85 108H191L97 -112H39L85 108Z" />
<glyph unicode="&#x201c;" glyph-name="quotedblleft" horiz-adv-x="443" d="M159 649H217L171 429H64L159 649ZM347 649H405L359 429H252L347 649Z" />
<glyph unicode="&#x201d;" glyph-name="quotedblright" horiz-adv-x="443" d="M85 649H191L97 429H39L85 649ZM272 649H379L284 429H226L272 649Z" />
<glyph unicode="&#x201e;" glyph-name="quotedblbase" horiz-adv-x="443" d="M85 108H191L97 -112H39L85 108ZM272 108H379L284 -112H226L272 108Z" />
<glyph unicode="&#x2022;" glyph-name="bullet" horiz-adv-x="479" d="M196 129T160 150T102 209T80 289Q80 332 101 368T159 426T239 448Q307 448 353 402Q399 356 399 289Q399 246 378 209T320 151T240 129Q196 129 160 150Z" />
<glyph unicode="&#x2039;" glyph-name="guilsinglleft" horiz-adv-x="256" d="M40 262L140 454H216L124 262L216 70H140L40 262Z" />
<glyph unicode="&#x203a;" glyph-name="guilsinglright" horiz-adv-x="256" d="M132 262L40 454H116L216 262L116 70H40L132 262Z" />
</font>
</defs>
</svg>
